999
Kaydara Dxf writer for FBX
  0
SECTION
  2
HEADER
  9
$ACADVER
  1
AC1008
  9
$UCSORG
 10
0.0
 20
0.0
 30
0.0
  9
$UCSXDIR
 10
1.0
 20
0.0
 30
0.0
  9
$TILEMODE
 70
   1
  9
$UCSYDIR
 10
0.0
 20
1.0
 30
0.0
  0
ENDSEC
  0
SECTION
  2
TABLES
  0
TABLE
  2
LTYPE
 70
   1
  0
LTYPE
  2
CONTINUOUS
 70
   64
  3
Solid line
 72
   65
 73
   0
 40
0.0
  0
ENDTAB
  0
TABLE
  2
LAYER
 70
   28
  0
LAYER
  2
pCube1
 70
   0
 62
   251
  6
CONTINUOUS
  0
LAYER
  2
pCylinder5
 70
   0
 62
   251
  6
CONTINUOUS
  0
LAYER
  2
pCylinder9
 70
   0
 62
   251
  6
CONTINUOUS
  0
LAYER
  2
pPlane1
 70
   0
 62
   251
  6
CONTINUOUS
  0
LAYER
  2
pCylinder11
 70
   0
 62
   251
  6
CONTINUOUS
  0
LAYER
  2
pCylinder12
 70
   0
 62
   251
  6
CONTINUOUS
  0
LAYER
  2
pCylinder13
 70
   0
 62
   251
  6
CONTINUOUS
  0
LAYER
  2
pCylinder14
 70
   0
 62
   251
  6
CONTINUOUS
  0
LAYER
  2
pCylinder15
 70
   0
 62
   251
  6
CONTINUOUS
  0
LAYER
  2
pPlane2
 70
   0
 62
   251
  6
CONTINUOUS
  0
LAYER
  2
pPlane3
 70
   0
 62
   251
  6
CONTINUOUS
  0
LAYER
  2
pPlane4
 70
   0
 62
   251
  6
CONTINUOUS
  0
LAYER
  2
pPlane5
 70
   0
 62
   251
  6
CONTINUOUS
  0
LAYER
  2
pPlane7
 70
   0
 62
   251
  6
CONTINUOUS
  0
LAYER
  2
pPlane8
 70
   0
 62
   251
  6
CONTINUOUS
  0
LAYER
  2
pPlane9
 70
   0
 62
   251
  6
CONTINUOUS
  0
LAYER
  2
pPlane10
 70
   0
 62
   251
  6
CONTINUOUS
  0
LAYER
  2
pPlane11
 70
   0
 62
   251
  6
CONTINUOUS
  0
LAYER
  2
pPlane12
 70
   0
 62
   251
  6
CONTINUOUS
  0
LAYER
  2
pPlane13
 70
   0
 62
   251
  6
CONTINUOUS
  0
LAYER
  2
pPlane14
 70
   0
 62
   251
  6
CONTINUOUS
  0
LAYER
  2
pPlane16
 70
   0
 62
   251
  6
CONTINUOUS
  0
LAYER
  2
pPlane19
 70
   0
 62
   251
  6
CONTINUOUS
  0
LAYER
  2
pPlane20
 70
   0
 62
   251
  6
CONTINUOUS
  0
LAYER
  2
pPlane22
 70
   0
 62
   251
  6
CONTINUOUS
  0
LAYER
  2
pPlane23
 70
   0
 62
   251
  6
CONTINUOUS
  0
LAYER
  2
pPlane24
 70
   0
 62
   251
  6
CONTINUOUS
  0
ENDTAB
  0
ENDSEC
  0
SECTION
  2
BLOCKS
  0
ENDSEC
  0
SECTION
  2
ENTITIES
  0
POLYLINE
  8
pCube1
 62
   251
 66
   1
 10
0.0
 20
0.0
 30
0.0
 70
   64
 71
   8
 72
   10
  0
VERTEX
  8
pCube1
 10
-4.911170
 20
-6.562009
 30
5.400948
 70
   192
  0
VERTEX
  8
pCube1
 10
2.337125
 20
-6.562009
 30
5.400948
 70
   192
  0
VERTEX
  8
pCube1
 10
-4.911170
 20
-6.562009
 30
6.108719
 70
   192
  0
VERTEX
  8
pCube1
 10
2.337125
 20
-6.562009
 30
6.108719
 70
   192
  0
VERTEX
  8
pCube1
 10
-4.911170
 20
8.275199
 30
6.108719
 70
   192
  0
VERTEX
  8
pCube1
 10
2.337125
 20
8.275199
 30
6.108719
 70
   192
  0
VERTEX
  8
pCube1
 10
-4.911170
 20
8.275199
 30
5.400948
 70
   192
  0
VERTEX
  8
pCube1
 10
2.337125
 20
8.275199
 30
5.400948
 70
   192
  0
VERTEX
  8
pCube1
 62
   251
 10
0.0
 20
0.0
 30
0.0
 70
   128
 71
   4
 72
   2
 73
   1
  0
VERTEX
  8
pCube1
 62
   251
 10
0.0
 20
0.0
 30
0.0
 70
   128
 71
   1
 72
   3
 73
   4
  0
VERTEX
  8
pCube1
 62
   251
 10
0.0
 20
0.0
 30
0.0
 70
   128
 71
   8
 72
   6
 73
   5
  0
VERTEX
  8
pCube1
 62
   251
 10
0.0
 20
0.0
 30
0.0
 70
   128
 71
   5
 72
   7
 73
   8
  0
VERTEX
  8
pCube1
 62
   251
 10
0.0
 20
0.0
 30
0.0
 70
   128
 71
   2
 72
   8
 73
   7
  0
VERTEX
  8
pCube1
 62
   251
 10
0.0
 20
0.0
 30
0.0
 70
   128
 71
   7
 72
   1
 73
   2
  0
VERTEX
  8
pCube1
 62
   251
 10
0.0
 20
0.0
 30
0.0
 70
   128
 71
   6
 72
   8
 73
   2
  0
VERTEX
  8
pCube1
 62
   251
 10
0.0
 20
0.0
 30
0.0
 70
   128
 71
   2
 72
   4
 73
   6
  0
VERTEX
  8
pCube1
 62
   251
 10
0.0
 20
0.0
 30
0.0
 70
   128
 71
   3
 72
   1
 73
   7
  0
VERTEX
  8
pCube1
 62
   251
 10
0.0
 20
0.0
 30
0.0
 70
   128
 71
   7
 72
   5
 73
   3
  0
SEQEND
  0
POLYLINE
  8
pCylinder5
 62
   251
 66
   1
 10
0.0
 20
0.0
 30
0.0
 70
   64
 71
   40
 72
   70
  0
VERTEX
  8
pCylinder5
 10
1.843552
 20
-5.230385
 30
0.120515
 70
   192
  0
VERTEX
  8
pCylinder5
 10
1.423520
 20
-4.828222
 30
0.102645
 70
   192
  0
VERTEX
  8
pCylinder5
 10
0.829505
 20
-4.828222
 30
0.077373
 70
   192
  0
VERTEX
  8
pCylinder5
 10
0.409472
 20
-5.230384
 30
0.059504
 70
   192
  0
VERTEX
  8
pCylinder5
 10
0.409472
 20
-5.799127
 30
0.059503
 70
   192
  0
VERTEX
  8
pCylinder5
 10
0.829504
 20
-6.201290
 30
0.077373
 70
   192
  0
VERTEX
  8
pCylinder5
 10
1.423519
 20
-6.201290
 30
0.102645
 70
   192
  0
VERTEX
  8
pCylinder5
 10
1.843552
 20
-5.799128
 30
0.120515
 70
   192
  0
VERTEX
  8
pCylinder5
 10
-3.847334
 20
-5.298109
 30
6.044011
 70
   192
  0
VERTEX
  8
pCylinder5
 10
-3.934110
 20
-5.114444
 30
5.957234
 70
   192
  0
VERTEX
  8
pCylinder5
 10
-4.063981
 20
-4.991723
 30
5.827363
 70
   192
  0
VERTEX
  8
pCylinder5
 10
-4.217174
 20
-4.948629
 30
5.674170
 70
   192
  0
VERTEX
  8
pCylinder5
 10
-4.370367
 20
-4.991722
 30
5.520977
 70
   192
  0
VERTEX
  8
pCylinder5
 10
-4.500238
 20
-5.114443
 30
5.391107
 70
   192
  0
VERTEX
  8
pCylinder5
 10
-4.587015
 20
-5.298108
 30
5.304330
 70
   192
  0
VERTEX
  8
pCylinder5
 10
-4.617487
 20
-5.514756
 30
5.273858
 70
   192
  0
VERTEX
  8
pCylinder5
 10
-4.587015
 20
-5.731403
 30
5.304330
 70
   192
  0
VERTEX
  8
pCylinder5
 10
-4.500238
 20
-5.915068
 30
5.391106
 70
   192
  0
VERTEX
  8
pCylinder5
 10
-4.370367
 20
-6.037789
 30
5.520977
 70
   192
  0
VERTEX
  8
pCylinder5
 10
-4.217174
 20
-6.080883
 30
5.674170
 70
   192
  0
VERTEX
  8
pCylinder5
 10
-4.063981
 20
-6.037789
 30
5.827363
 70
   192
  0
VERTEX
  8
pCylinder5
 10
-3.934111
 20
-5.915068
 30
5.957234
 70
   192
  0
VERTEX
  8
pCylinder5
 10
-3.847334
 20
-5.731403
 30
6.044011
 70
   192
  0
VERTEX
  8
pCylinder5
 10
-3.816862
 20
-5.514756
 30
6.074483
 70
   192
  0
VERTEX
  8
pCylinder5
 10
-3.889909
 20
-5.308941
 30
6.049602
 70
   192
  0
VERTEX
  8
pCylinder5
 10
-3.972347
 20
-5.134459
 30
5.967164
 70
   192
  0
VERTEX
  8
pCylinder5
 10
-4.095724
 20
-5.017874
 30
5.843787
 70
   192
  0
VERTEX
  8
pCylinder5
 10
-4.241257
 20
-4.976935
 30
5.698254
 70
   192
  0
VERTEX
  8
pCylinder5
 10
-4.386791
 20
-5.017874
 30
5.552720
 70
   192
  0
VERTEX
  8
pCylinder5
 10
-4.510168
 20
-5.134459
 30
5.429343
 70
   192
  0
VERTEX
  8
pCylinder5
 10
-4.592606
 20
-5.308941
 30
5.346905
 70
   192
  0
VERTEX
  8
pCylinder5
 10
-4.621555
 20
-5.514756
 30
5.317957
 70
   192
  0
VERTEX
  8
pCylinder5
 10
-4.592606
 20
-5.720571
 30
5.346905
 70
   192
  0
VERTEX
  8
pCylinder5
 10
-4.510168
 20
-5.895053
 30
5.429343
 70
   192
  0
VERTEX
  8
pCylinder5
 10
-4.386791
 20
-6.011638
 30
5.552720
 70
   192
  0
VERTEX
  8
pCylinder5
 10
-4.241258
 20
-6.052577
 30
5.698253
 70
   192
  0
VERTEX
  8
pCylinder5
 10
-4.095724
 20
-6.011638
 30
5.843787
 70
   192
  0
VERTEX
  8
pCylinder5
 10
-3.972347
 20
-5.895053
 30
5.967164
 70
   192
  0
VERTEX
  8
pCylinder5
 10
-3.889909
 20
-5.720571
 30
6.049602
 70
   192
  0
VERTEX
  8
pCylinder5
 10
-3.860961
 20
-5.514756
 30
6.078551
 70
   192
  0
VERTEX
  8
pCylinder5
 62
   251
 10
0.0
 20
0.0
 30
0.0
 70
   128
 71
   1
 72
   9
 73
   10
  0
VERTEX
  8
pCylinder5
 62
   251
 10
0.0
 20
0.0
 30
0.0
 70
   128
 71
   10
 72
   2
 73
   1
  0
VERTEX
  8
pCylinder5
 62
   251
 10
0.0
 20
0.0
 30
0.0
 70
   128
 71
   11
 72
   2
 73
   10
  0
VERTEX
  8
pCylinder5
 62
   251
 10
0.0
 20
0.0
 30
0.0
 70
   128
 71
   2
 72
   11
 73
   12
  0
VERTEX
  8
pCylinder5
 62
   251
 10
0.0
 20
0.0
 30
0.0
 70
   128
 71
   12
 72
   3
 73
   2
  0
VERTEX
  8
pCylinder5
 62
   251
 10
0.0
 20
0.0
 30
0.0
 70
   128
 71
   13
 72
   3
 73
   12
  0
VERTEX
  8
pCylinder5
 62
   251
 10
0.0
 20
0.0
 30
0.0
 70
   128
 71
   3
 72
   13
 73
   14
  0
VERTEX
  8
pCylinder5
 62
   251
 10
0.0
 20
0.0
 30
0.0
 70
   128
 71
   14
 72
   4
 73
   3
  0
VERTEX
  8
pCylinder5
 62
   251
 10
0.0
 20
0.0
 30
0.0
 70
   128
 71
   15
 72
   4
 73
   14
  0
VERTEX
  8
pCylinder5
 62
   251
 10
0.0
 20
0.0
 30
0.0
 70
   128
 71
   4
 72
   15
 73
   16
  0
VERTEX
  8
pCylinder5
 62
   251
 10
0.0
 20
0.0
 30
0.0
 70
   128
 71
   16
 72
   5
 73
   4
  0
VERTEX
  8
pCylinder5
 62
   251
 10
0.0
 20
0.0
 30
0.0
 70
   128
 71
   17
 72
   5
 73
   16
  0
VERTEX
  8
pCylinder5
 62
   251
 10
0.0
 20
0.0
 30
0.0
 70
   128
 71
   5
 72
   17
 73
   18
  0
VERTEX
  8
pCylinder5
 62
   251
 10
0.0
 20
0.0
 30
0.0
 70
   128
 71
   18
 72
   6
 73
   5
  0
VERTEX
  8
pCylinder5
 62
   251
 10
0.0
 20
0.0
 30
0.0
 70
   128
 71
   19
 72
   6
 73
   18
  0
VERTEX
  8
pCylinder5
 62
   251
 10
0.0
 20
0.0
 30
0.0
 70
   128
 71
   6
 72
   19
 73
   20
  0
VERTEX
  8
pCylinder5
 62
   251
 10
0.0
 20
0.0
 30
0.0
 70
   128
 71
   20
 72
   7
 73
   6
  0
VERTEX
  8
pCylinder5
 62
   251
 10
0.0
 20
0.0
 30
0.0
 70
   128
 71
   21
 72
   7
 73
   20
  0
VERTEX
  8
pCylinder5
 62
   251
 10
0.0
 20
0.0
 30
0.0
 70
   128
 71
   7
 72
   21
 73
   22
  0
VERTEX
  8
pCylinder5
 62
   251
 10
0.0
 20
0.0
 30
0.0
 70
   128
 71
   22
 72
   8
 73
   7
  0
VERTEX
  8
pCylinder5
 62
   251
 10
0.0
 20
0.0
 30
0.0
 70
   128
 71
   23
 72
   8
 73
   22
  0
VERTEX
  8
pCylinder5
 62
   251
 10
0.0
 20
0.0
 30
0.0
 70
   128
 71
   8
 72
   23
 73
   24
  0
VERTEX
  8
pCylinder5
 62
   251
 10
0.0
 20
0.0
 30
0.0
 70
   128
 71
   24
 72
   1
 73
   8
  0
VERTEX
  8
pCylinder5
 62
   251
 10
0.0
 20
0.0
 30
0.0
 70
   128
 71
   9
 72
   1
 73
   24
  0
VERTEX
  8
pCylinder5
 62
   251
 10
0.0
 20
0.0
 30
0.0
 70
   128
 71
   26
 72
   10
 73
   9
  0
VERTEX
  8
pCylinder5
 62
   251
 10
0.0
 20
0.0
 30
0.0
 70
   128
 71
   9
 72
   25
 73
   26
  0
VERTEX
  8
pCylinder5
 62
   251
 10
0.0
 20
0.0
 30
0.0
 70
   128
 71
   27
 72
   11
 73
   10
  0
VERTEX
  8
pCylinder5
 62
   251
 10
0.0
 20
0.0
 30
0.0
 70
   128
 71
   10
 72
   26
 73
   27
  0
VERTEX
  8
pCylinder5
 62
   251
 10
0.0
 20
0.0
 30
0.0
 70
   128
 71
   28
 72
   12
 73
   11
  0
VERTEX
  8
pCylinder5
 62
   251
 10
0.0
 20
0.0
 30
0.0
 70
   128
 71
   11
 72
   27
 73
   28
  0
VERTEX
  8
pCylinder5
 62
   251
 10
0.0
 20
0.0
 30
0.0
 70
   128
 71
   29
 72
   13
 73
   12
  0
VERTEX
  8
pCylinder5
 62
   251
 10
0.0
 20
0.0
 30
0.0
 70
   128
 71
   12
 72
   28
 73
   29
  0
VERTEX
  8
pCylinder5
 62
   251
 10
0.0
 20
0.0
 30
0.0
 70
   128
 71
   30
 72
   14
 73
   13
  0
VERTEX
  8
pCylinder5
 62
   251
 10
0.0
 20
0.0
 30
0.0
 70
   128
 71
   13
 72
   29
 73
   30
  0
VERTEX
  8
pCylinder5
 62
   251
 10
0.0
 20
0.0
 30
0.0
 70
   128
 71
   31
 72
   15
 73
   14
  0
VERTEX
  8
pCylinder5
 62
   251
 10
0.0
 20
0.0
 30
0.0
 70
   128
 71
   14
 72
   30
 73
   31
  0
VERTEX
  8
pCylinder5
 62
   251
 10
0.0
 20
0.0
 30
0.0
 70
   128
 71
   32
 72
   16
 73
   15
  0
VERTEX
  8
pCylinder5
 62
   251
 10
0.0
 20
0.0
 30
0.0
 70
   128
 71
   15
 72
   31
 73
   32
  0
VERTEX
  8
pCylinder5
 62
   251
 10
0.0
 20
0.0
 30
0.0
 70
   128
 71
   33
 72
   17
 73
   16
  0
VERTEX
  8
pCylinder5
 62
   251
 10
0.0
 20
0.0
 30
0.0
 70
   128
 71
   16
 72
   32
 73
   33
  0
VERTEX
  8
pCylinder5
 62
   251
 10
0.0
 20
0.0
 30
0.0
 70
   128
 71
   34
 72
   18
 73
   17
  0
VERTEX
  8
pCylinder5
 62
   251
 10
0.0
 20
0.0
 30
0.0
 70
   128
 71
   17
 72
   33
 73
   34
  0
VERTEX
  8
pCylinder5
 62
   251
 10
0.0
 20
0.0
 30
0.0
 70
   128
 71
   35
 72
   19
 73
   18
  0
VERTEX
  8
pCylinder5
 62
   251
 10
0.0
 20
0.0
 30
0.0
 70
   128
 71
   18
 72
   34
 73
   35
  0
VERTEX
  8
pCylinder5
 62
   251
 10
0.0
 20
0.0
 30
0.0
 70
   128
 71
   36
 72
   20
 73
   19
  0
VERTEX
  8
pCylinder5
 62
   251
 10
0.0
 20
0.0
 30
0.0
 70
   128
 71
   19
 72
   35
 73
   36
  0
VERTEX
  8
pCylinder5
 62
   251
 10
0.0
 20
0.0
 30
0.0
 70
   128
 71
   37
 72
   21
 73
   20
  0
VERTEX
  8
pCylinder5
 62
   251
 10
0.0
 20
0.0
 30
0.0
 70
   128
 71
   20
 72
   36
 73
   37
  0
VERTEX
  8
pCylinder5
 62
   251
 10
0.0
 20
0.0
 30
0.0
 70
   128
 71
   38
 72
   22
 73
   21
  0
VERTEX
  8
pCylinder5
 62
   251
 10
0.0
 20
0.0
 30
0.0
 70
   128
 71
   21
 72
   37
 73
   38
  0
VERTEX
  8
pCylinder5
 62
   251
 10
0.0
 20
0.0
 30
0.0
 70
   128
 71
   39
 72
   23
 73
   22
  0
VERTEX
  8
pCylinder5
 62
   251
 10
0.0
 20
0.0
 30
0.0
 70
   128
 71
   22
 72
   38
 73
   39
  0
VERTEX
  8
pCylinder5
 62
   251
 10
0.0
 20
0.0
 30
0.0
 70
   128
 71
   40
 72
   24
 73
   23
  0
VERTEX
  8
pCylinder5
 62
   251
 10
0.0
 20
0.0
 30
0.0
 70
   128
 71
   23
 72
   39
 73
   40
  0
VERTEX
  8
pCylinder5
 62
   251
 10
0.0
 20
0.0
 30
0.0
 70
   128
 71
   25
 72
   9
 73
   24
  0
VERTEX
  8
pCylinder5
 62
   251
 10
0.0
 20
0.0
 30
0.0
 70
   128
 71
   24
 72
   40
 73
   25
  0
VERTEX
  8
pCylinder5
 62
   251
 10
0.0
 20
0.0
 30
0.0
 70
   128
 71
   26
 72
   25
 73
   40
  0
VERTEX
  8
pCylinder5
 62
   251
 10
0.0
 20
0.0
 30
0.0
 70
   128
 71
   40
 72
   27
 73
   26
  0
VERTEX
  8
pCylinder5
 62
   251
 10
0.0
 20
0.0
 30
0.0
 70
   128
 71
   39
 72
   27
 73
   40
  0
VERTEX
  8
pCylinder5
 62
   251
 10
0.0
 20
0.0
 30
0.0
 70
   128
 71
   39
 72
   28
 73
   27
  0
VERTEX
  8
pCylinder5
 62
   251
 10
0.0
 20
0.0
 30
0.0
 70
   128
 71
   38
 72
   28
 73
   39
  0
VERTEX
  8
pCylinder5
 62
   251
 10
0.0
 20
0.0
 30
0.0
 70
   128
 71
   38
 72
   29
 73
   28
  0
VERTEX
  8
pCylinder5
 62
   251
 10
0.0
 20
0.0
 30
0.0
 70
   128
 71
   37
 72
   29
 73
   38
  0
VERTEX
  8
pCylinder5
 62
   251
 10
0.0
 20
0.0
 30
0.0
 70
   128
 71
   37
 72
   30
 73
   29
  0
VERTEX
  8
pCylinder5
 62
   251
 10
0.0
 20
0.0
 30
0.0
 70
   128
 71
   36
 72
   30
 73
   37
  0
VERTEX
  8
pCylinder5
 62
   251
 10
0.0
 20
0.0
 30
0.0
 70
   128
 71
   36
 72
   31
 73
   30
  0
VERTEX
  8
pCylinder5
 62
   251
 10
0.0
 20
0.0
 30
0.0
 70
   128
 71
   35
 72
   31
 73
   36
  0
VERTEX
  8
pCylinder5
 62
   251
 10
0.0
 20
0.0
 30
0.0
 70
   128
 71
   35
 72
   32
 73
   31
  0
VERTEX
  8
pCylinder5
 62
   251
 10
0.0
 20
0.0
 30
0.0
 70
   128
 71
   34
 72
   32
 73
   35
  0
VERTEX
  8
pCylinder5
 62
   251
 10
0.0
 20
0.0
 30
0.0
 70
   128
 71
   34
 72
   33
 73
   32
  0
SEQEND
  0
POLYLINE
  8
pCylinder9
 62
   251
 66
   1
 10
0.0
 20
0.0
 30
0.0
 70
   64
 71
   20
 72
   30
  0
VERTEX
  8
pCylinder9
 10
1.871881
 20
-4.710906
 30
5.406428
 70
   192
  0
VERTEX
  8
pCylinder9
 10
1.871881
 20
-4.951287
 30
4.949285
 70
   192
  0
VERTEX
  8
pCylinder9
 10
1.871881
 20
-5.531620
 30
4.759930
 70
   192
  0
VERTEX
  8
pCylinder9
 10
1.871881
 20
-6.111953
 30
4.949284
 70
   192
  0
VERTEX
  8
pCylinder9
 10
1.871881
 20
-6.352335
 30
5.406428
 70
   192
  0
VERTEX
  8
pCylinder9
 10
1.848180
 20
-4.662792
 30
5.406428
 70
   192
  0
VERTEX
  8
pCylinder9
 10
1.848180
 20
-4.917266
 30
4.923398
 70
   192
  0
VERTEX
  8
pCylinder9
 10
1.848180
 20
-5.531620
 30
4.723320
 70
   192
  0
VERTEX
  8
pCylinder9
 10
1.848180
 20
-6.145975
 30
4.923397
 70
   192
  0
VERTEX
  8
pCylinder9
 10
1.848180
 20
-6.400449
 30
5.406428
 70
   192
  0
VERTEX
  8
pCylinder9
 10
-4.605799
 20
-4.666915
 30
5.406428
 70
   192
  0
VERTEX
  8
pCylinder9
 10
-4.605799
 20
-4.920181
 30
4.925690
 70
   192
  0
VERTEX
  8
pCylinder9
 10
-4.605799
 20
-5.531620
 30
4.726561
 70
   192
  0
VERTEX
  8
pCylinder9
 10
-4.605799
 20
-6.143060
 30
4.925690
 70
   192
  0
VERTEX
  8
pCylinder9
 10
-4.605799
 20
-6.396326
 30
5.406428
 70
   192
  0
VERTEX
  8
pCylinder9
 10
-4.634904
 20
-4.710150
 30
5.406428
 70
   192
  0
VERTEX
  8
pCylinder9
 10
-4.634904
 20
-4.950753
 30
4.949727
 70
   192
  0
VERTEX
  8
pCylinder9
 10
-4.634904
 20
-5.531620
 30
4.760554
 70
   192
  0
VERTEX
  8
pCylinder9
 10
-4.634904
 20
-6.112488
 30
4.949726
 70
   192
  0
VERTEX
  8
pCylinder9
 10
-4.634904
 20
-6.353091
 30
5.406428
 70
   192
  0
VERTEX
  8
pCylinder9
 62
   251
 10
0.0
 20
0.0
 30
0.0
 70
   128
 71
   2
 72
   1
 73
   6
  0
VERTEX
  8
pCylinder9
 62
   251
 10
0.0
 20
0.0
 30
0.0
 70
   128
 71
   6
 72
   7
 73
   2
  0
VERTEX
  8
pCylinder9
 62
   251
 10
0.0
 20
0.0
 30
0.0
 70
   128
 71
   3
 72
   2
 73
   7
  0
VERTEX
  8
pCylinder9
 62
   251
 10
0.0
 20
0.0
 30
0.0
 70
   128
 71
   7
 72
   8
 73
   3
  0
VERTEX
  8
pCylinder9
 62
   251
 10
0.0
 20
0.0
 30
0.0
 70
   128
 71
   4
 72
   3
 73
   8
  0
VERTEX
  8
pCylinder9
 62
   251
 10
0.0
 20
0.0
 30
0.0
 70
   128
 71
   8
 72
   9
 73
   4
  0
VERTEX
  8
pCylinder9
 62
   251
 10
0.0
 20
0.0
 30
0.0
 70
   128
 71
   5
 72
   4
 73
   9
  0
VERTEX
  8
pCylinder9
 62
   251
 10
0.0
 20
0.0
 30
0.0
 70
   128
 71
   9
 72
   10
 73
   5
  0
VERTEX
  8
pCylinder9
 62
   251
 10
0.0
 20
0.0
 30
0.0
 70
   128
 71
   7
 72
   6
 73
   11
  0
VERTEX
  8
pCylinder9
 62
   251
 10
0.0
 20
0.0
 30
0.0
 70
   128
 71
   11
 72
   12
 73
   7
  0
VERTEX
  8
pCylinder9
 62
   251
 10
0.0
 20
0.0
 30
0.0
 70
   128
 71
   8
 72
   7
 73
   12
  0
VERTEX
  8
pCylinder9
 62
   251
 10
0.0
 20
0.0
 30
0.0
 70
   128
 71
   12
 72
   13
 73
   8
  0
VERTEX
  8
pCylinder9
 62
   251
 10
0.0
 20
0.0
 30
0.0
 70
   128
 71
   9
 72
   8
 73
   13
  0
VERTEX
  8
pCylinder9
 62
   251
 10
0.0
 20
0.0
 30
0.0
 70
   128
 71
   13
 72
   14
 73
   9
  0
VERTEX
  8
pCylinder9
 62
   251
 10
0.0
 20
0.0
 30
0.0
 70
   128
 71
   10
 72
   9
 73
   14
  0
VERTEX
  8
pCylinder9
 62
   251
 10
0.0
 20
0.0
 30
0.0
 70
   128
 71
   14
 72
   15
 73
   10
  0
VERTEX
  8
pCylinder9
 62
   251
 10
0.0
 20
0.0
 30
0.0
 70
   128
 71
   11
 72
   16
 73
   17
  0
VERTEX
  8
pCylinder9
 62
   251
 10
0.0
 20
0.0
 30
0.0
 70
   128
 71
   17
 72
   12
 73
   11
  0
VERTEX
  8
pCylinder9
 62
   251
 10
0.0
 20
0.0
 30
0.0
 70
   128
 71
   12
 72
   17
 73
   18
  0
VERTEX
  8
pCylinder9
 62
   251
 10
0.0
 20
0.0
 30
0.0
 70
   128
 71
   18
 72
   13
 73
   12
  0
VERTEX
  8
pCylinder9
 62
   251
 10
0.0
 20
0.0
 30
0.0
 70
   128
 71
   13
 72
   18
 73
   19
  0
VERTEX
  8
pCylinder9
 62
   251
 10
0.0
 20
0.0
 30
0.0
 70
   128
 71
   19
 72
   14
 73
   13
  0
VERTEX
  8
pCylinder9
 62
   251
 10
0.0
 20
0.0
 30
0.0
 70
   128
 71
   14
 72
   19
 73
   20
  0
VERTEX
  8
pCylinder9
 62
   251
 10
0.0
 20
0.0
 30
0.0
 70
   128
 71
   20
 72
   15
 73
   14
  0
VERTEX
  8
pCylinder9
 62
   251
 10
0.0
 20
0.0
 30
0.0
 70
   128
 71
   17
 72
   16
 73
   20
  0
VERTEX
  8
pCylinder9
 62
   251
 10
0.0
 20
0.0
 30
0.0
 70
   128
 71
   20
 72
   18
 73
   17
  0
VERTEX
  8
pCylinder9
 62
   251
 10
0.0
 20
0.0
 30
0.0
 70
   128
 71
   19
 72
   18
 73
   20
  0
VERTEX
  8
pCylinder9
 62
   251
 10
0.0
 20
0.0
 30
0.0
 70
   128
 71
   4
 72
   5
 73
   1
  0
VERTEX
  8
pCylinder9
 62
   251
 10
0.0
 20
0.0
 30
0.0
 70
   128
 71
   1
 72
   3
 73
   4
  0
VERTEX
  8
pCylinder9
 62
   251
 10
0.0
 20
0.0
 30
0.0
 70
   128
 71
   2
 72
   3
 73
   1
  0
SEQEND
  0
POLYLINE
  8
pPlane1
 62
   251
 66
   1
 10
0.0
 20
0.0
 30
0.0
 70
   64
 71
   99
 72
   160
  0
VERTEX
  8
pPlane1
 10
-5.381144
 20
-5.382931
 30
5.237142
 70
   192
  0
VERTEX
  8
pPlane1
 10
-5.373606
 20
-5.439901
 30
5.665324
 70
   192
  0
VERTEX
  8
pPlane1
 10
-5.121540
 20
-5.337751
 30
6.511574
 70
   192
  0
VERTEX
  8
pPlane1
 10
-4.307752
 20
-5.171177
 30
6.608718
 70
   192
  0
VERTEX
  8
pPlane1
 10
-3.494908
 20
-5.072198
 30
6.634335
 70
   192
  0
VERTEX
  8
pPlane1
 10
-1.774004
 20
-4.774712
 30
6.855721
 70
   192
  0
VERTEX
  8
pPlane1
 10
-0.091355
 20
-4.964814
 30
6.772561
 70
   192
  0
VERTEX
  8
pPlane1
 10
1.563159
 20
-5.333334
 30
6.660290
 70
   192
  0
VERTEX
  8
pPlane1
 10
2.424224
 20
-5.918010
 30
6.388901
 70
   192
  0
VERTEX
  8
pPlane1
 10
2.511240
 20
-5.899767
 30
5.663469
 70
   192
  0
VERTEX
  8
pPlane1
 10
2.479274
 20
-5.849459
 30
5.166018
 70
   192
  0
VERTEX
  8
pPlane1
 10
-5.301305
 20
-5.139957
 30
5.205944
 70
   192
  0
VERTEX
  8
pPlane1
 10
-5.351856
 20
-5.056492
 30
5.589881
 70
   192
  0
VERTEX
  8
pPlane1
 10
-5.106991
 20
-4.823550
 30
6.591849
 70
   192
  0
VERTEX
  8
pPlane1
 10
-4.322554
 20
-4.699337
 30
6.711885
 70
   192
  0
VERTEX
  8
pPlane1
 10
-3.499955
 20
-4.593220
 30
6.788672
 70
   192
  0
VERTEX
  8
pPlane1
 10
-1.777066
 20
-4.437079
 30
6.882021
 70
   192
  0
VERTEX
  8
pPlane1
 10
-0.079468
 20
-4.702890
 30
6.743784
 70
   192
  0
VERTEX
  8
pPlane1
 10
1.574138
 20
-4.863428
 30
6.689007
 70
   192
  0
VERTEX
  8
pPlane1
 10
2.422597
 20
-5.083535
 30
6.424583
 70
   192
  0
VERTEX
  8
pPlane1
 10
2.502968
 20
-5.103438
 30
5.728904
 70
   192
  0
VERTEX
  8
pPlane1
 10
2.511664
 20
-5.094513
 30
5.242744
 70
   192
  0
VERTEX
  8
pPlane1
 10
-5.229564
 20
-4.013633
 30
5.217026
 70
   192
  0
VERTEX
  8
pPlane1
 10
-5.273781
 20
-3.995534
 30
5.697276
 70
   192
  0
VERTEX
  8
pPlane1
 10
-5.090975
 20
-3.979572
 30
6.586575
 70
   192
  0
VERTEX
  8
pPlane1
 10
-4.349050
 20
-4.008534
 30
6.703936
 70
   192
  0
VERTEX
  8
pPlane1
 10
-3.503463
 20
-3.933003
 30
6.756272
 70
   192
  0
VERTEX
  8
pPlane1
 10
-1.786711
 20
-3.759543
 30
6.767770
 70
   192
  0
VERTEX
  8
pPlane1
 10
-0.081886
 20
-3.988945
 30
6.731187
 70
   192
  0
VERTEX
  8
pPlane1
 10
1.619337
 20
-4.016392
 30
6.707020
 70
   192
  0
VERTEX
  8
pPlane1
 10
2.443537
 20
-4.016085
 30
6.434995
 70
   192
  0
VERTEX
  8
pPlane1
 10
2.506338
 20
-3.998197
 30
5.816075
 70
   192
  0
VERTEX
  8
pPlane1
 10
2.504186
 20
-3.987834
 30
5.416883
 70
   192
  0
VERTEX
  8
pPlane1
 10
-5.310937
 20
-1.726585
 30
5.430652
 70
   192
  0
VERTEX
  8
pPlane1
 10
-5.288148
 20
-1.726931
 30
5.823855
 70
   192
  0
VERTEX
  8
pPlane1
 10
-5.149391
 20
-1.729890
 30
6.549168
 70
   192
  0
VERTEX
  8
pPlane1
 10
-4.333434
 20
-1.734155
 30
6.655525
 70
   192
  0
VERTEX
  8
pPlane1
 10
-3.503428
 20
-1.731281
 30
6.549648
 70
   192
  0
VERTEX
  8
pPlane1
 10
-1.795494
 20
-1.737410
 30
6.417227
 70
   192
  0
VERTEX
  8
pPlane1
 10
-0.089061
 20
-1.744534
 30
6.503378
 70
   192
  0
VERTEX
  8
pPlane1
 10
1.603937
 20
-1.716584
 30
6.826568
 70
   192
  0
VERTEX
  8
pPlane1
 10
2.457268
 20
-1.717042
 30
6.539190
 70
   192
  0
VERTEX
  8
pPlane1
 10
2.491727
 20
-1.719743
 30
5.864057
 70
   192
  0
VERTEX
  8
pPlane1
 10
2.472206
 20
-1.721680
 30
5.241968
 70
   192
  0
VERTEX
  8
pPlane1
 10
-5.324005
 20
0.567944
 30
5.255225
 70
   192
  0
VERTEX
  8
pPlane1
 10
-5.310395
 20
0.568807
 30
5.682490
 70
   192
  0
VERTEX
  8
pPlane1
 10
-5.082133
 20
0.569068
 30
6.530822
 70
   192
  0
VERTEX
  8
pPlane1
 10
-4.323679
 20
0.571467
 30
6.684537
 70
   192
  0
VERTEX
  8
pPlane1
 10
-3.509454
 20
0.575656
 30
6.654213
 70
   192
  0
VERTEX
  8
pPlane1
 10
-1.885693
 20
0.592856
 30
6.397775
 70
   192
  0
VERTEX
  8
pPlane1
 10
-0.149366
 20
0.580349
 30
6.382055
 70
   192
  0
VERTEX
  8
pPlane1
 10
1.607597
 20
0.568926
 30
6.419822
 70
   192
  0
VERTEX
  8
pPlane1
 10
2.431390
 20
0.573941
 30
6.499827
 70
   192
  0
VERTEX
  8
pPlane1
 10
2.391837
 20
0.579078
 30
5.818033
 70
   192
  0
VERTEX
  8
pPlane1
 10
2.382854
 20
0.578458
 30
5.211017
 70
   192
  0
VERTEX
  8
pPlane1
 10
-5.251775
 20
2.867751
 30
5.311901
 70
   192
  0
VERTEX
  8
pPlane1
 10
-5.244706
 20
2.867541
 30
5.677904
 70
   192
  0
VERTEX
  8
pPlane1
 10
-5.076596
 20
2.867282
 30
6.446607
 70
   192
  0
VERTEX
  8
pPlane1
 10
-4.328390
 20
2.868894
 30
6.674820
 70
   192
  0
VERTEX
  8
pPlane1
 10
-3.496514
 20
2.861690
 30
6.719553
 70
   192
  0
VERTEX
  8
pPlane1
 10
-1.864033
 20
2.867366
 30
6.463017
 70
   192
  0
VERTEX
  8
pPlane1
 10
-0.146842
 20
2.869833
 30
6.484233
 70
   192
  0
VERTEX
  8
pPlane1
 10
1.587671
 20
2.858560
 30
6.636047
 70
   192
  0
VERTEX
  8
pPlane1
 10
2.414280
 20
2.863946
 30
6.502482
 70
   192
  0
VERTEX
  8
pPlane1
 10
2.376725
 20
2.856129
 30
5.773218
 70
   192
  0
VERTEX
  8
pPlane1
 10
2.377309
 20
2.855299
 30
5.208135
 70
   192
  0
VERTEX
  8
pPlane1
 10
-5.259970
 20
5.164108
 30
5.217885
 70
   192
  0
VERTEX
  8
pPlane1
 10
-5.419985
 20
5.169400
 30
5.574929
 70
   192
  0
VERTEX
  8
pPlane1
 10
-5.160308
 20
5.165553
 30
6.547606
 70
   192
  0
VERTEX
  8
pPlane1
 10
-4.332989
 20
5.157346
 30
6.636769
 70
   192
  0
VERTEX
  8
pPlane1
 10
-3.490733
 20
5.154800
 30
6.662143
 70
   192
  0
VERTEX
  8
pPlane1
 10
-1.797457
 20
5.163847
 30
6.787050
 70
   192
  0
VERTEX
  8
pPlane1
 10
-0.091434
 20
5.169718
 30
6.676167
 70
   192
  0
VERTEX
  8
pPlane1
 10
1.603162
 20
5.165233
 30
6.760090
 70
   192
  0
VERTEX
  8
pPlane1
 10
2.435942
 20
5.165457
 30
6.524622
 70
   192
  0
VERTEX
  8
pPlane1
 10
2.491988
 20
5.166388
 30
5.889460
 70
   192
  0
VERTEX
  8
pPlane1
 10
2.482802
 20
5.167346
 30
5.175471
 70
   192
  0
VERTEX
  8
pPlane1
 10
-5.385347
 20
7.417287
 30
5.220013
 70
   192
  0
VERTEX
  8
pPlane1
 10
-5.444993
 20
7.433733
 30
5.498274
 70
   192
  0
VERTEX
  8
pPlane1
 10
-5.111084
 20
7.381651
 30
6.435708
 70
   192
  0
VERTEX
  8
pPlane1
 10
-4.329876
 20
7.447563
 30
6.574350
 70
   192
  0
VERTEX
  8
pPlane1
 10
-3.484892
 20
7.437938
 30
6.483477
 70
   192
  0
VERTEX
  8
pPlane1
 10
-1.787344
 20
7.455803
 30
6.520827
 70
   192
  0
VERTEX
  8
pPlane1
 10
-0.092897
 20
7.438921
 30
6.474265
 70
   192
  0
VERTEX
  8
pPlane1
 10
1.611149
 20
7.363941
 30
6.399615
 70
   192
  0
VERTEX
  8
pPlane1
 10
2.410473
 20
7.415239
 30
6.378312
 70
   192
  0
VERTEX
  8
pPlane1
 10
2.499649
 20
7.400834
 30
5.702666
 70
   192
  0
VERTEX
  8
pPlane1
 10
2.462292
 20
7.264316
 30
5.100512
 70
   192
  0
VERTEX
  8
pPlane1
 10
-5.283056
 20
7.884748
 30
5.104643
 70
   192
  0
VERTEX
  8
pPlane1
 10
-5.340456
 20
7.942073
 30
5.355264
 70
   192
  0
VERTEX
  8
pPlane1
 10
-5.105914
 20
7.860141
 30
6.280071
 70
   192
  0
VERTEX
  8
pPlane1
 10
-4.317950
 20
7.771889
 30
6.359723
 70
   192
  0
VERTEX
  8
pPlane1
 10
-3.487139
 20
7.780124
 30
6.346223
 70
   192
  0
VERTEX
  8
pPlane1
 10
-1.788743
 20
8.111181
 30
6.422171
 70
   192
  0
VERTEX
  8
pPlane1
 10
-0.091988
 20
7.889160
 30
6.290151
 70
   192
  0
VERTEX
  8
pPlane1
 10
1.616439
 20
7.950224
 30
6.314553
 70
   192
  0
VERTEX
  8
pPlane1
 10
2.317089
 20
7.962923
 30
6.284432
 70
   192
  0
VERTEX
  8
pPlane1
 10
2.444949
 20
8.018352
 30
5.663457
 70
   192
  0
VERTEX
  8
pPlane1
 10
2.418895
 20
7.766774
 30
5.069995
 70
   192
  0
VERTEX
  8
pPlane1
 62
   251
 10
0.0
 20
0.0
 30
0.0
 70
   128
 71
   13
 72
   2
 73
   1
  0
VERTEX
  8
pPlane1
 62
   251
 10
0.0
 20
0.0
 30
0.0
 70
   128
 71
   1
 72
   12
 73
   13
  0
VERTEX
  8
pPlane1
 62
   251
 10
0.0
 20
0.0
 30
0.0
 70
   128
 71
   14
 72
   3
 73
   2
  0
VERTEX
  8
pPlane1
 62
   251
 10
0.0
 20
0.0
 30
0.0
 70
   128
 71
   2
 72
   13
 73
   14
  0
VERTEX
  8
pPlane1
 62
   251
 10
0.0
 20
0.0
 30
0.0
 70
   128
 71
   15
 72
   4
 73
   3
  0
VERTEX
  8
pPlane1
 62
   251
 10
0.0
 20
0.0
 30
0.0
 70
   128
 71
   3
 72
   14
 73
   15
  0
VERTEX
  8
pPlane1
 62
   251
 10
0.0
 20
0.0
 30
0.0
 70
   128
 71
   16
 72
   5
 73
   4
  0
VERTEX
  8
pPlane1
 62
   251
 10
0.0
 20
0.0
 30
0.0
 70
   128
 71
   4
 72
   15
 73
   16
  0
VERTEX
  8
pPlane1
 62
   251
 10
0.0
 20
0.0
 30
0.0
 70
   128
 71
   6
 72
   5
 73
   16
  0
VERTEX
  8
pPlane1
 62
   251
 10
0.0
 20
0.0
 30
0.0
 70
   128
 71
   16
 72
   17
 73
   6
  0
VERTEX
  8
pPlane1
 62
   251
 10
0.0
 20
0.0
 30
0.0
 70
   128
 71
   7
 72
   6
 73
   17
  0
VERTEX
  8
pPlane1
 62
   251
 10
0.0
 20
0.0
 30
0.0
 70
   128
 71
   17
 72
   18
 73
   7
  0
VERTEX
  8
pPlane1
 62
   251
 10
0.0
 20
0.0
 30
0.0
 70
   128
 71
   8
 72
   7
 73
   18
  0
VERTEX
  8
pPlane1
 62
   251
 10
0.0
 20
0.0
 30
0.0
 70
   128
 71
   18
 72
   19
 73
   8
  0
VERTEX
  8
pPlane1
 62
   251
 10
0.0
 20
0.0
 30
0.0
 70
   128
 71
   20
 72
   9
 73
   8
  0
VERTEX
  8
pPlane1
 62
   251
 10
0.0
 20
0.0
 30
0.0
 70
   128
 71
   8
 72
   19
 73
   20
  0
VERTEX
  8
pPlane1
 62
   251
 10
0.0
 20
0.0
 30
0.0
 70
   128
 71
   21
 72
   10
 73
   9
  0
VERTEX
  8
pPlane1
 62
   251
 10
0.0
 20
0.0
 30
0.0
 70
   128
 71
   9
 72
   20
 73
   21
  0
VERTEX
  8
pPlane1
 62
   251
 10
0.0
 20
0.0
 30
0.0
 70
   128
 71
   22
 72
   11
 73
   10
  0
VERTEX
  8
pPlane1
 62
   251
 10
0.0
 20
0.0
 30
0.0
 70
   128
 71
   10
 72
   21
 73
   22
  0
VERTEX
  8
pPlane1
 62
   251
 10
0.0
 20
0.0
 30
0.0
 70
   128
 71
   24
 72
   13
 73
   12
  0
VERTEX
  8
pPlane1
 62
   251
 10
0.0
 20
0.0
 30
0.0
 70
   128
 71
   12
 72
   23
 73
   24
  0
VERTEX
  8
pPlane1
 62
   251
 10
0.0
 20
0.0
 30
0.0
 70
   128
 71
   25
 72
   14
 73
   13
  0
VERTEX
  8
pPlane1
 62
   251
 10
0.0
 20
0.0
 30
0.0
 70
   128
 71
   13
 72
   24
 73
   25
  0
VERTEX
  8
pPlane1
 62
   251
 10
0.0
 20
0.0
 30
0.0
 70
   128
 71
   26
 72
   15
 73
   14
  0
VERTEX
  8
pPlane1
 62
   251
 10
0.0
 20
0.0
 30
0.0
 70
   128
 71
   14
 72
   25
 73
   26
  0
VERTEX
  8
pPlane1
 62
   251
 10
0.0
 20
0.0
 30
0.0
 70
   128
 71
   27
 72
   16
 73
   15
  0
VERTEX
  8
pPlane1
 62
   251
 10
0.0
 20
0.0
 30
0.0
 70
   128
 71
   15
 72
   26
 73
   27
  0
VERTEX
  8
pPlane1
 62
   251
 10
0.0
 20
0.0
 30
0.0
 70
   128
 71
   17
 72
   16
 73
   27
  0
VERTEX
  8
pPlane1
 62
   251
 10
0.0
 20
0.0
 30
0.0
 70
   128
 71
   27
 72
   28
 73
   17
  0
VERTEX
  8
pPlane1
 62
   251
 10
0.0
 20
0.0
 30
0.0
 70
   128
 71
   18
 72
   17
 73
   28
  0
VERTEX
  8
pPlane1
 62
   251
 10
0.0
 20
0.0
 30
0.0
 70
   128
 71
   28
 72
   29
 73
   18
  0
VERTEX
  8
pPlane1
 62
   251
 10
0.0
 20
0.0
 30
0.0
 70
   128
 71
   19
 72
   18
 73
   29
  0
VERTEX
  8
pPlane1
 62
   251
 10
0.0
 20
0.0
 30
0.0
 70
   128
 71
   29
 72
   30
 73
   19
  0
VERTEX
  8
pPlane1
 62
   251
 10
0.0
 20
0.0
 30
0.0
 70
   128
 71
   31
 72
   20
 73
   19
  0
VERTEX
  8
pPlane1
 62
   251
 10
0.0
 20
0.0
 30
0.0
 70
   128
 71
   19
 72
   30
 73
   31
  0
VERTEX
  8
pPlane1
 62
   251
 10
0.0
 20
0.0
 30
0.0
 70
   128
 71
   32
 72
   21
 73
   20
  0
VERTEX
  8
pPlane1
 62
   251
 10
0.0
 20
0.0
 30
0.0
 70
   128
 71
   20
 72
   31
 73
   32
  0
VERTEX
  8
pPlane1
 62
   251
 10
0.0
 20
0.0
 30
0.0
 70
   128
 71
   33
 72
   22
 73
   21
  0
VERTEX
  8
pPlane1
 62
   251
 10
0.0
 20
0.0
 30
0.0
 70
   128
 71
   21
 72
   32
 73
   33
  0
VERTEX
  8
pPlane1
 62
   251
 10
0.0
 20
0.0
 30
0.0
 70
   128
 71
   34
 72
   35
 73
   24
  0
VERTEX
  8
pPlane1
 62
   251
 10
0.0
 20
0.0
 30
0.0
 70
   128
 71
   24
 72
   23
 73
   34
  0
VERTEX
  8
pPlane1
 62
   251
 10
0.0
 20
0.0
 30
0.0
 70
   128
 71
   35
 72
   36
 73
   25
  0
VERTEX
  8
pPlane1
 62
   251
 10
0.0
 20
0.0
 30
0.0
 70
   128
 71
   25
 72
   24
 73
   35
  0
VERTEX
  8
pPlane1
 62
   251
 10
0.0
 20
0.0
 30
0.0
 70
   128
 71
   36
 72
   37
 73
   26
  0
VERTEX
  8
pPlane1
 62
   251
 10
0.0
 20
0.0
 30
0.0
 70
   128
 71
   26
 72
   25
 73
   36
  0
VERTEX
  8
pPlane1
 62
   251
 10
0.0
 20
0.0
 30
0.0
 70
   128
 71
   26
 72
   37
 73
   38
  0
VERTEX
  8
pPlane1
 62
   251
 10
0.0
 20
0.0
 30
0.0
 70
   128
 71
   38
 72
   27
 73
   26
  0
VERTEX
  8
pPlane1
 62
   251
 10
0.0
 20
0.0
 30
0.0
 70
   128
 71
   27
 72
   38
 73
   39
  0
VERTEX
  8
pPlane1
 62
   251
 10
0.0
 20
0.0
 30
0.0
 70
   128
 71
   39
 72
   28
 73
   27
  0
VERTEX
  8
pPlane1
 62
   251
 10
0.0
 20
0.0
 30
0.0
 70
   128
 71
   28
 72
   39
 73
   40
  0
VERTEX
  8
pPlane1
 62
   251
 10
0.0
 20
0.0
 30
0.0
 70
   128
 71
   40
 72
   29
 73
   28
  0
VERTEX
  8
pPlane1
 62
   251
 10
0.0
 20
0.0
 30
0.0
 70
   128
 71
   40
 72
   41
 73
   30
  0
VERTEX
  8
pPlane1
 62
   251
 10
0.0
 20
0.0
 30
0.0
 70
   128
 71
   30
 72
   29
 73
   40
  0
VERTEX
  8
pPlane1
 62
   251
 10
0.0
 20
0.0
 30
0.0
 70
   128
 71
   41
 72
   42
 73
   31
  0
VERTEX
  8
pPlane1
 62
   251
 10
0.0
 20
0.0
 30
0.0
 70
   128
 71
   31
 72
   30
 73
   41
  0
VERTEX
  8
pPlane1
 62
   251
 10
0.0
 20
0.0
 30
0.0
 70
   128
 71
   42
 72
   43
 73
   32
  0
VERTEX
  8
pPlane1
 62
   251
 10
0.0
 20
0.0
 30
0.0
 70
   128
 71
   32
 72
   31
 73
   42
  0
VERTEX
  8
pPlane1
 62
   251
 10
0.0
 20
0.0
 30
0.0
 70
   128
 71
   43
 72
   44
 73
   33
  0
VERTEX
  8
pPlane1
 62
   251
 10
0.0
 20
0.0
 30
0.0
 70
   128
 71
   33
 72
   32
 73
   43
  0
VERTEX
  8
pPlane1
 62
   251
 10
0.0
 20
0.0
 30
0.0
 70
   128
 71
   45
 72
   46
 73
   35
  0
VERTEX
  8
pPlane1
 62
   251
 10
0.0
 20
0.0
 30
0.0
 70
   128
 71
   35
 72
   34
 73
   45
  0
VERTEX
  8
pPlane1
 62
   251
 10
0.0
 20
0.0
 30
0.0
 70
   128
 71
   46
 72
   47
 73
   36
  0
VERTEX
  8
pPlane1
 62
   251
 10
0.0
 20
0.0
 30
0.0
 70
   128
 71
   36
 72
   35
 73
   46
  0
VERTEX
  8
pPlane1
 62
   251
 10
0.0
 20
0.0
 30
0.0
 70
   128
 71
   47
 72
   48
 73
   37
  0
VERTEX
  8
pPlane1
 62
   251
 10
0.0
 20
0.0
 30
0.0
 70
   128
 71
   37
 72
   36
 73
   47
  0
VERTEX
  8
pPlane1
 62
   251
 10
0.0
 20
0.0
 30
0.0
 70
   128
 71
   37
 72
   48
 73
   49
  0
VERTEX
  8
pPlane1
 62
   251
 10
0.0
 20
0.0
 30
0.0
 70
   128
 71
   49
 72
   38
 73
   37
  0
VERTEX
  8
pPlane1
 62
   251
 10
0.0
 20
0.0
 30
0.0
 70
   128
 71
   38
 72
   49
 73
   50
  0
VERTEX
  8
pPlane1
 62
   251
 10
0.0
 20
0.0
 30
0.0
 70
   128
 71
   50
 72
   39
 73
   38
  0
VERTEX
  8
pPlane1
 62
   251
 10
0.0
 20
0.0
 30
0.0
 70
   128
 71
   39
 72
   50
 73
   51
  0
VERTEX
  8
pPlane1
 62
   251
 10
0.0
 20
0.0
 30
0.0
 70
   128
 71
   51
 72
   40
 73
   39
  0
VERTEX
  8
pPlane1
 62
   251
 10
0.0
 20
0.0
 30
0.0
 70
   128
 71
   51
 72
   52
 73
   41
  0
VERTEX
  8
pPlane1
 62
   251
 10
0.0
 20
0.0
 30
0.0
 70
   128
 71
   41
 72
   40
 73
   51
  0
VERTEX
  8
pPlane1
 62
   251
 10
0.0
 20
0.0
 30
0.0
 70
   128
 71
   52
 72
   53
 73
   42
  0
VERTEX
  8
pPlane1
 62
   251
 10
0.0
 20
0.0
 30
0.0
 70
   128
 71
   42
 72
   41
 73
   52
  0
VERTEX
  8
pPlane1
 62
   251
 10
0.0
 20
0.0
 30
0.0
 70
   128
 71
   53
 72
   54
 73
   43
  0
VERTEX
  8
pPlane1
 62
   251
 10
0.0
 20
0.0
 30
0.0
 70
   128
 71
   43
 72
   42
 73
   53
  0
VERTEX
  8
pPlane1
 62
   251
 10
0.0
 20
0.0
 30
0.0
 70
   128
 71
   54
 72
   55
 73
   44
  0
VERTEX
  8
pPlane1
 62
   251
 10
0.0
 20
0.0
 30
0.0
 70
   128
 71
   44
 72
   43
 73
   54
  0
VERTEX
  8
pPlane1
 62
   251
 10
0.0
 20
0.0
 30
0.0
 70
   128
 71
   56
 72
   57
 73
   46
  0
VERTEX
  8
pPlane1
 62
   251
 10
0.0
 20
0.0
 30
0.0
 70
   128
 71
   46
 72
   45
 73
   56
  0
VERTEX
  8
pPlane1
 62
   251
 10
0.0
 20
0.0
 30
0.0
 70
   128
 71
   57
 72
   58
 73
   47
  0
VERTEX
  8
pPlane1
 62
   251
 10
0.0
 20
0.0
 30
0.0
 70
   128
 71
   47
 72
   46
 73
   57
  0
VERTEX
  8
pPlane1
 62
   251
 10
0.0
 20
0.0
 30
0.0
 70
   128
 71
   58
 72
   59
 73
   48
  0
VERTEX
  8
pPlane1
 62
   251
 10
0.0
 20
0.0
 30
0.0
 70
   128
 71
   48
 72
   47
 73
   58
  0
VERTEX
  8
pPlane1
 62
   251
 10
0.0
 20
0.0
 30
0.0
 70
   128
 71
   48
 72
   59
 73
   60
  0
VERTEX
  8
pPlane1
 62
   251
 10
0.0
 20
0.0
 30
0.0
 70
   128
 71
   60
 72
   49
 73
   48
  0
VERTEX
  8
pPlane1
 62
   251
 10
0.0
 20
0.0
 30
0.0
 70
   128
 71
   49
 72
   60
 73
   61
  0
VERTEX
  8
pPlane1
 62
   251
 10
0.0
 20
0.0
 30
0.0
 70
   128
 71
   61
 72
   50
 73
   49
  0
VERTEX
  8
pPlane1
 62
   251
 10
0.0
 20
0.0
 30
0.0
 70
   128
 71
   50
 72
   61
 73
   62
  0
VERTEX
  8
pPlane1
 62
   251
 10
0.0
 20
0.0
 30
0.0
 70
   128
 71
   62
 72
   51
 73
   50
  0
VERTEX
  8
pPlane1
 62
   251
 10
0.0
 20
0.0
 30
0.0
 70
   128
 71
   62
 72
   63
 73
   52
  0
VERTEX
  8
pPlane1
 62
   251
 10
0.0
 20
0.0
 30
0.0
 70
   128
 71
   52
 72
   51
 73
   62
  0
VERTEX
  8
pPlane1
 62
   251
 10
0.0
 20
0.0
 30
0.0
 70
   128
 71
   63
 72
   64
 73
   53
  0
VERTEX
  8
pPlane1
 62
   251
 10
0.0
 20
0.0
 30
0.0
 70
   128
 71
   53
 72
   52
 73
   63
  0
VERTEX
  8
pPlane1
 62
   251
 10
0.0
 20
0.0
 30
0.0
 70
   128
 71
   64
 72
   65
 73
   54
  0
VERTEX
  8
pPlane1
 62
   251
 10
0.0
 20
0.0
 30
0.0
 70
   128
 71
   54
 72
   53
 73
   64
  0
VERTEX
  8
pPlane1
 62
   251
 10
0.0
 20
0.0
 30
0.0
 70
   128
 71
   65
 72
   66
 73
   55
  0
VERTEX
  8
pPlane1
 62
   251
 10
0.0
 20
0.0
 30
0.0
 70
   128
 71
   55
 72
   54
 73
   65
  0
VERTEX
  8
pPlane1
 62
   251
 10
0.0
 20
0.0
 30
0.0
 70
   128
 71
   67
 72
   68
 73
   57
  0
VERTEX
  8
pPlane1
 62
   251
 10
0.0
 20
0.0
 30
0.0
 70
   128
 71
   57
 72
   56
 73
   67
  0
VERTEX
  8
pPlane1
 62
   251
 10
0.0
 20
0.0
 30
0.0
 70
   128
 71
   68
 72
   69
 73
   58
  0
VERTEX
  8
pPlane1
 62
   251
 10
0.0
 20
0.0
 30
0.0
 70
   128
 71
   58
 72
   57
 73
   68
  0
VERTEX
  8
pPlane1
 62
   251
 10
0.0
 20
0.0
 30
0.0
 70
   128
 71
   69
 72
   70
 73
   59
  0
VERTEX
  8
pPlane1
 62
   251
 10
0.0
 20
0.0
 30
0.0
 70
   128
 71
   59
 72
   58
 73
   69
  0
VERTEX
  8
pPlane1
 62
   251
 10
0.0
 20
0.0
 30
0.0
 70
   128
 71
   59
 72
   70
 73
   71
  0
VERTEX
  8
pPlane1
 62
   251
 10
0.0
 20
0.0
 30
0.0
 70
   128
 71
   71
 72
   60
 73
   59
  0
VERTEX
  8
pPlane1
 62
   251
 10
0.0
 20
0.0
 30
0.0
 70
   128
 71
   60
 72
   71
 73
   72
  0
VERTEX
  8
pPlane1
 62
   251
 10
0.0
 20
0.0
 30
0.0
 70
   128
 71
   72
 72
   61
 73
   60
  0
VERTEX
  8
pPlane1
 62
   251
 10
0.0
 20
0.0
 30
0.0
 70
   128
 71
   61
 72
   72
 73
   73
  0
VERTEX
  8
pPlane1
 62
   251
 10
0.0
 20
0.0
 30
0.0
 70
   128
 71
   73
 72
   62
 73
   61
  0
VERTEX
  8
pPlane1
 62
   251
 10
0.0
 20
0.0
 30
0.0
 70
   128
 71
   73
 72
   74
 73
   63
  0
VERTEX
  8
pPlane1
 62
   251
 10
0.0
 20
0.0
 30
0.0
 70
   128
 71
   63
 72
   62
 73
   73
  0
VERTEX
  8
pPlane1
 62
   251
 10
0.0
 20
0.0
 30
0.0
 70
   128
 71
   74
 72
   75
 73
   64
  0
VERTEX
  8
pPlane1
 62
   251
 10
0.0
 20
0.0
 30
0.0
 70
   128
 71
   64
 72
   63
 73
   74
  0
VERTEX
  8
pPlane1
 62
   251
 10
0.0
 20
0.0
 30
0.0
 70
   128
 71
   75
 72
   76
 73
   65
  0
VERTEX
  8
pPlane1
 62
   251
 10
0.0
 20
0.0
 30
0.0
 70
   128
 71
   65
 72
   64
 73
   75
  0
VERTEX
  8
pPlane1
 62
   251
 10
0.0
 20
0.0
 30
0.0
 70
   128
 71
   76
 72
   77
 73
   66
  0
VERTEX
  8
pPlane1
 62
   251
 10
0.0
 20
0.0
 30
0.0
 70
   128
 71
   66
 72
   65
 73
   76
  0
VERTEX
  8
pPlane1
 62
   251
 10
0.0
 20
0.0
 30
0.0
 70
   128
 71
   78
 72
   79
 73
   68
  0
VERTEX
  8
pPlane1
 62
   251
 10
0.0
 20
0.0
 30
0.0
 70
   128
 71
   68
 72
   67
 73
   78
  0
VERTEX
  8
pPlane1
 62
   251
 10
0.0
 20
0.0
 30
0.0
 70
   128
 71
   79
 72
   80
 73
   69
  0
VERTEX
  8
pPlane1
 62
   251
 10
0.0
 20
0.0
 30
0.0
 70
   128
 71
   69
 72
   68
 73
   79
  0
VERTEX
  8
pPlane1
 62
   251
 10
0.0
 20
0.0
 30
0.0
 70
   128
 71
   80
 72
   81
 73
   70
  0
VERTEX
  8
pPlane1
 62
   251
 10
0.0
 20
0.0
 30
0.0
 70
   128
 71
   70
 72
   69
 73
   80
  0
VERTEX
  8
pPlane1
 62
   251
 10
0.0
 20
0.0
 30
0.0
 70
   128
 71
   70
 72
   81
 73
   82
  0
VERTEX
  8
pPlane1
 62
   251
 10
0.0
 20
0.0
 30
0.0
 70
   128
 71
   82
 72
   71
 73
   70
  0
VERTEX
  8
pPlane1
 62
   251
 10
0.0
 20
0.0
 30
0.0
 70
   128
 71
   71
 72
   82
 73
   83
  0
VERTEX
  8
pPlane1
 62
   251
 10
0.0
 20
0.0
 30
0.0
 70
   128
 71
   83
 72
   72
 73
   71
  0
VERTEX
  8
pPlane1
 62
   251
 10
0.0
 20
0.0
 30
0.0
 70
   128
 71
   72
 72
   83
 73
   84
  0
VERTEX
  8
pPlane1
 62
   251
 10
0.0
 20
0.0
 30
0.0
 70
   128
 71
   84
 72
   73
 73
   72
  0
VERTEX
  8
pPlane1
 62
   251
 10
0.0
 20
0.0
 30
0.0
 70
   128
 71
   84
 72
   85
 73
   74
  0
VERTEX
  8
pPlane1
 62
   251
 10
0.0
 20
0.0
 30
0.0
 70
   128
 71
   74
 72
   73
 73
   84
  0
VERTEX
  8
pPlane1
 62
   251
 10
0.0
 20
0.0
 30
0.0
 70
   128
 71
   85
 72
   86
 73
   75
  0
VERTEX
  8
pPlane1
 62
   251
 10
0.0
 20
0.0
 30
0.0
 70
   128
 71
   75
 72
   74
 73
   85
  0
VERTEX
  8
pPlane1
 62
   251
 10
0.0
 20
0.0
 30
0.0
 70
   128
 71
   86
 72
   87
 73
   76
  0
VERTEX
  8
pPlane1
 62
   251
 10
0.0
 20
0.0
 30
0.0
 70
   128
 71
   76
 72
   75
 73
   86
  0
VERTEX
  8
pPlane1
 62
   251
 10
0.0
 20
0.0
 30
0.0
 70
   128
 71
   87
 72
   88
 73
   77
  0
VERTEX
  8
pPlane1
 62
   251
 10
0.0
 20
0.0
 30
0.0
 70
   128
 71
   77
 72
   76
 73
   87
  0
VERTEX
  8
pPlane1
 62
   251
 10
0.0
 20
0.0
 30
0.0
 70
   128
 71
   90
 72
   79
 73
   78
  0
VERTEX
  8
pPlane1
 62
   251
 10
0.0
 20
0.0
 30
0.0
 70
   128
 71
   78
 72
   89
 73
   90
  0
VERTEX
  8
pPlane1
 62
   251
 10
0.0
 20
0.0
 30
0.0
 70
   128
 71
   91
 72
   80
 73
   79
  0
VERTEX
  8
pPlane1
 62
   251
 10
0.0
 20
0.0
 30
0.0
 70
   128
 71
   79
 72
   90
 73
   91
  0
VERTEX
  8
pPlane1
 62
   251
 10
0.0
 20
0.0
 30
0.0
 70
   128
 71
   92
 72
   81
 73
   80
  0
VERTEX
  8
pPlane1
 62
   251
 10
0.0
 20
0.0
 30
0.0
 70
   128
 71
   80
 72
   91
 73
   92
  0
VERTEX
  8
pPlane1
 62
   251
 10
0.0
 20
0.0
 30
0.0
 70
   128
 71
   93
 72
   82
 73
   81
  0
VERTEX
  8
pPlane1
 62
   251
 10
0.0
 20
0.0
 30
0.0
 70
   128
 71
   81
 72
   92
 73
   93
  0
VERTEX
  8
pPlane1
 62
   251
 10
0.0
 20
0.0
 30
0.0
 70
   128
 71
   82
 72
   93
 73
   94
  0
VERTEX
  8
pPlane1
 62
   251
 10
0.0
 20
0.0
 30
0.0
 70
   128
 71
   94
 72
   83
 73
   82
  0
VERTEX
  8
pPlane1
 62
   251
 10
0.0
 20
0.0
 30
0.0
 70
   128
 71
   83
 72
   94
 73
   95
  0
VERTEX
  8
pPlane1
 62
   251
 10
0.0
 20
0.0
 30
0.0
 70
   128
 71
   95
 72
   84
 73
   83
  0
VERTEX
  8
pPlane1
 62
   251
 10
0.0
 20
0.0
 30
0.0
 70
   128
 71
   84
 72
   95
 73
   96
  0
VERTEX
  8
pPlane1
 62
   251
 10
0.0
 20
0.0
 30
0.0
 70
   128
 71
   96
 72
   85
 73
   84
  0
VERTEX
  8
pPlane1
 62
   251
 10
0.0
 20
0.0
 30
0.0
 70
   128
 71
   97
 72
   86
 73
   85
  0
VERTEX
  8
pPlane1
 62
   251
 10
0.0
 20
0.0
 30
0.0
 70
   128
 71
   85
 72
   96
 73
   97
  0
VERTEX
  8
pPlane1
 62
   251
 10
0.0
 20
0.0
 30
0.0
 70
   128
 71
   98
 72
   87
 73
   86
  0
VERTEX
  8
pPlane1
 62
   251
 10
0.0
 20
0.0
 30
0.0
 70
   128
 71
   86
 72
   97
 73
   98
  0
VERTEX
  8
pPlane1
 62
   251
 10
0.0
 20
0.0
 30
0.0
 70
   128
 71
   99
 72
   88
 73
   87
  0
VERTEX
  8
pPlane1
 62
   251
 10
0.0
 20
0.0
 30
0.0
 70
   128
 71
   87
 72
   98
 73
   99
  0
SEQEND
  0
POLYLINE
  8
pCylinder11
 62
   251
 66
   1
 10
0.0
 20
0.0
 30
0.0
 70
   64
 71
   24
 72
   24
  0
VERTEX
  8
pCylinder11
 10
-4.912323
 20
-5.230385
 30
0.090901
 70
   192
  0
VERTEX
  8
pCylinder11
 10
-4.517865
 20
-4.828222
 30
0.098606
 70
   192
  0
VERTEX
  8
pCylinder11
 10
-3.960018
 20
-4.828222
 30
0.109502
 70
   192
  0
VERTEX
  8
pCylinder11
 10
-3.565561
 20
-5.230384
 30
0.117207
 70
   192
  0
VERTEX
  8
pCylinder11
 10
-3.565561
 20
-5.799127
 30
0.117207
 70
   192
  0
VERTEX
  8
pCylinder11
 10
-3.960018
 20
-6.201290
 30
0.109502
 70
   192
  0
VERTEX
  8
pCylinder11
 10
-4.517865
 20
-6.201290
 30
0.098606
 70
   192
  0
VERTEX
  8
pCylinder11
 10
-4.912322
 20
-5.799128
 30
0.090901
 70
   192
  0
VERTEX
  8
pCylinder11
 10
0.792148
 20
-5.298109
 30
6.000811
 70
   192
  0
VERTEX
  8
pCylinder11
 10
0.868789
 20
-5.114444
 30
5.924170
 70
   192
  0
VERTEX
  8
pCylinder11
 10
0.983490
 20
-4.991723
 30
5.809469
 70
   192
  0
VERTEX
  8
pCylinder11
 10
1.118789
 20
-4.948629
 30
5.674170
 70
   192
  0
VERTEX
  8
pCylinder11
 10
1.254088
 20
-4.991722
 30
5.538871
 70
   192
  0
VERTEX
  8
pCylinder11
 10
1.368789
 20
-5.114443
 30
5.424170
 70
   192
  0
VERTEX
  8
pCylinder11
 10
1.445430
 20
-5.298108
 30
5.347529
 70
   192
  0
VERTEX
  8
pCylinder11
 10
1.472343
 20
-5.514756
 30
5.320617
 70
   192
  0
VERTEX
  8
pCylinder11
 10
1.445430
 20
-5.731403
 30
5.347529
 70
   192
  0
VERTEX
  8
pCylinder11
 10
1.368789
 20
-5.915068
 30
5.424170
 70
   192
  0
VERTEX
  8
pCylinder11
 10
1.254088
 20
-6.037789
 30
5.538871
 70
   192
  0
VERTEX
  8
pCylinder11
 10
1.118789
 20
-6.080883
 30
5.674170
 70
   192
  0
VERTEX
  8
pCylinder11
 10
0.983490
 20
-6.037789
 30
5.809469
 70
   192
  0
VERTEX
  8
pCylinder11
 10
0.868789
 20
-5.915068
 30
5.924170
 70
   192
  0
VERTEX
  8
pCylinder11
 10
0.792149
 20
-5.731403
 30
6.000811
 70
   192
  0
VERTEX
  8
pCylinder11
 10
0.765236
 20
-5.514756
 30
6.027723
 70
   192
  0
VERTEX
  8
pCylinder11
 62
   251
 10
0.0
 20
0.0
 30
0.0
 70
   128
 71
   1
 72
   9
 73
   10
  0
VERTEX
  8
pCylinder11
 62
   251
 10
0.0
 20
0.0
 30
0.0
 70
   128
 71
   10
 72
   2
 73
   1
  0
VERTEX
  8
pCylinder11
 62
   251
 10
0.0
 20
0.0
 30
0.0
 70
   128
 71
   11
 72
   2
 73
   10
  0
VERTEX
  8
pCylinder11
 62
   251
 10
0.0
 20
0.0
 30
0.0
 70
   128
 71
   2
 72
   11
 73
   12
  0
VERTEX
  8
pCylinder11
 62
   251
 10
0.0
 20
0.0
 30
0.0
 70
   128
 71
   12
 72
   3
 73
   2
  0
VERTEX
  8
pCylinder11
 62
   251
 10
0.0
 20
0.0
 30
0.0
 70
   128
 71
   13
 72
   3
 73
   12
  0
VERTEX
  8
pCylinder11
 62
   251
 10
0.0
 20
0.0
 30
0.0
 70
   128
 71
   3
 72
   13
 73
   14
  0
VERTEX
  8
pCylinder11
 62
   251
 10
0.0
 20
0.0
 30
0.0
 70
   128
 71
   14
 72
   4
 73
   3
  0
VERTEX
  8
pCylinder11
 62
   251
 10
0.0
 20
0.0
 30
0.0
 70
   128
 71
   15
 72
   4
 73
   14
  0
VERTEX
  8
pCylinder11
 62
   251
 10
0.0
 20
0.0
 30
0.0
 70
   128
 71
   4
 72
   15
 73
   16
  0
VERTEX
  8
pCylinder11
 62
   251
 10
0.0
 20
0.0
 30
0.0
 70
   128
 71
   16
 72
   5
 73
   4
  0
VERTEX
  8
pCylinder11
 62
   251
 10
0.0
 20
0.0
 30
0.0
 70
   128
 71
   17
 72
   5
 73
   16
  0
VERTEX
  8
pCylinder11
 62
   251
 10
0.0
 20
0.0
 30
0.0
 70
   128
 71
   5
 72
   17
 73
   18
  0
VERTEX
  8
pCylinder11
 62
   251
 10
0.0
 20
0.0
 30
0.0
 70
   128
 71
   18
 72
   6
 73
   5
  0
VERTEX
  8
pCylinder11
 62
   251
 10
0.0
 20
0.0
 30
0.0
 70
   128
 71
   19
 72
   6
 73
   18
  0
VERTEX
  8
pCylinder11
 62
   251
 10
0.0
 20
0.0
 30
0.0
 70
   128
 71
   6
 72
   19
 73
   20
  0
VERTEX
  8
pCylinder11
 62
   251
 10
0.0
 20
0.0
 30
0.0
 70
   128
 71
   20
 72
   7
 73
   6
  0
VERTEX
  8
pCylinder11
 62
   251
 10
0.0
 20
0.0
 30
0.0
 70
   128
 71
   21
 72
   7
 73
   20
  0
VERTEX
  8
pCylinder11
 62
   251
 10
0.0
 20
0.0
 30
0.0
 70
   128
 71
   7
 72
   21
 73
   22
  0
VERTEX
  8
pCylinder11
 62
   251
 10
0.0
 20
0.0
 30
0.0
 70
   128
 71
   22
 72
   8
 73
   7
  0
VERTEX
  8
pCylinder11
 62
   251
 10
0.0
 20
0.0
 30
0.0
 70
   128
 71
   23
 72
   8
 73
   22
  0
VERTEX
  8
pCylinder11
 62
   251
 10
0.0
 20
0.0
 30
0.0
 70
   128
 71
   8
 72
   23
 73
   24
  0
VERTEX
  8
pCylinder11
 62
   251
 10
0.0
 20
0.0
 30
0.0
 70
   128
 71
   24
 72
   1
 73
   8
  0
VERTEX
  8
pCylinder11
 62
   251
 10
0.0
 20
0.0
 30
0.0
 70
   128
 71
   9
 72
   1
 73
   24
  0
SEQEND
  0
POLYLINE
  8
pCylinder12
 62
   251
 66
   1
 10
0.0
 20
0.0
 30
0.0
 70
   64
 71
   20
 72
   30
  0
VERTEX
  8
pCylinder12
 10
1.871881
 20
7.932407
 30
5.406428
 70
   192
  0
VERTEX
  8
pCylinder12
 10
1.871881
 20
7.692025
 30
4.949285
 70
   192
  0
VERTEX
  8
pCylinder12
 10
1.871881
 20
7.111693
 30
4.759930
 70
   192
  0
VERTEX
  8
pCylinder12
 10
1.871881
 20
6.531360
 30
4.949284
 70
   192
  0
VERTEX
  8
pCylinder12
 10
1.871881
 20
6.290978
 30
5.406428
 70
   192
  0
VERTEX
  8
pCylinder12
 10
1.848180
 20
7.980521
 30
5.406428
 70
   192
  0
VERTEX
  8
pCylinder12
 10
1.848180
 20
7.726047
 30
4.923398
 70
   192
  0
VERTEX
  8
pCylinder12
 10
1.848180
 20
7.111693
 30
4.723320
 70
   192
  0
VERTEX
  8
pCylinder12
 10
1.848180
 20
6.497338
 30
4.923397
 70
   192
  0
VERTEX
  8
pCylinder12
 10
1.848180
 20
6.242864
 30
5.406428
 70
   192
  0
VERTEX
  8
pCylinder12
 10
-4.605799
 20
7.976398
 30
5.406428
 70
   192
  0
VERTEX
  8
pCylinder12
 10
-4.605799
 20
7.723132
 30
4.925690
 70
   192
  0
VERTEX
  8
pCylinder12
 10
-4.605799
 20
7.111693
 30
4.726561
 70
   192
  0
VERTEX
  8
pCylinder12
 10
-4.605799
 20
6.500253
 30
4.925690
 70
   192
  0
VERTEX
  8
pCylinder12
 10
-4.605799
 20
6.246987
 30
5.406428
 70
   192
  0
VERTEX
  8
pCylinder12
 10
-4.634904
 20
7.933163
 30
5.406428
 70
   192
  0
VERTEX
  8
pCylinder12
 10
-4.634904
 20
7.692560
 30
4.949727
 70
   192
  0
VERTEX
  8
pCylinder12
 10
-4.634904
 20
7.111693
 30
4.760554
 70
   192
  0
VERTEX
  8
pCylinder12
 10
-4.634904
 20
6.530825
 30
4.949726
 70
   192
  0
VERTEX
  8
pCylinder12
 10
-4.634904
 20
6.290222
 30
5.406428
 70
   192
  0
VERTEX
  8
pCylinder12
 62
   251
 10
0.0
 20
0.0
 30
0.0
 70
   128
 71
   2
 72
   1
 73
   6
  0
VERTEX
  8
pCylinder12
 62
   251
 10
0.0
 20
0.0
 30
0.0
 70
   128
 71
   6
 72
   7
 73
   2
  0
VERTEX
  8
pCylinder12
 62
   251
 10
0.0
 20
0.0
 30
0.0
 70
   128
 71
   3
 72
   2
 73
   7
  0
VERTEX
  8
pCylinder12
 62
   251
 10
0.0
 20
0.0
 30
0.0
 70
   128
 71
   7
 72
   8
 73
   3
  0
VERTEX
  8
pCylinder12
 62
   251
 10
0.0
 20
0.0
 30
0.0
 70
   128
 71
   4
 72
   3
 73
   8
  0
VERTEX
  8
pCylinder12
 62
   251
 10
0.0
 20
0.0
 30
0.0
 70
   128
 71
   8
 72
   9
 73
   4
  0
VERTEX
  8
pCylinder12
 62
   251
 10
0.0
 20
0.0
 30
0.0
 70
   128
 71
   5
 72
   4
 73
   9
  0
VERTEX
  8
pCylinder12
 62
   251
 10
0.0
 20
0.0
 30
0.0
 70
   128
 71
   9
 72
   10
 73
   5
  0
VERTEX
  8
pCylinder12
 62
   251
 10
0.0
 20
0.0
 30
0.0
 70
   128
 71
   7
 72
   6
 73
   11
  0
VERTEX
  8
pCylinder12
 62
   251
 10
0.0
 20
0.0
 30
0.0
 70
   128
 71
   11
 72
   12
 73
   7
  0
VERTEX
  8
pCylinder12
 62
   251
 10
0.0
 20
0.0
 30
0.0
 70
   128
 71
   8
 72
   7
 73
   12
  0
VERTEX
  8
pCylinder12
 62
   251
 10
0.0
 20
0.0
 30
0.0
 70
   128
 71
   12
 72
   13
 73
   8
  0
VERTEX
  8
pCylinder12
 62
   251
 10
0.0
 20
0.0
 30
0.0
 70
   128
 71
   9
 72
   8
 73
   13
  0
VERTEX
  8
pCylinder12
 62
   251
 10
0.0
 20
0.0
 30
0.0
 70
   128
 71
   13
 72
   14
 73
   9
  0
VERTEX
  8
pCylinder12
 62
   251
 10
0.0
 20
0.0
 30
0.0
 70
   128
 71
   10
 72
   9
 73
   14
  0
VERTEX
  8
pCylinder12
 62
   251
 10
0.0
 20
0.0
 30
0.0
 70
   128
 71
   14
 72
   15
 73
   10
  0
VERTEX
  8
pCylinder12
 62
   251
 10
0.0
 20
0.0
 30
0.0
 70
   128
 71
   11
 72
   16
 73
   17
  0
VERTEX
  8
pCylinder12
 62
   251
 10
0.0
 20
0.0
 30
0.0
 70
   128
 71
   17
 72
   12
 73
   11
  0
VERTEX
  8
pCylinder12
 62
   251
 10
0.0
 20
0.0
 30
0.0
 70
   128
 71
   12
 72
   17
 73
   18
  0
VERTEX
  8
pCylinder12
 62
   251
 10
0.0
 20
0.0
 30
0.0
 70
   128
 71
   18
 72
   13
 73
   12
  0
VERTEX
  8
pCylinder12
 62
   251
 10
0.0
 20
0.0
 30
0.0
 70
   128
 71
   13
 72
   18
 73
   19
  0
VERTEX
  8
pCylinder12
 62
   251
 10
0.0
 20
0.0
 30
0.0
 70
   128
 71
   19
 72
   14
 73
   13
  0
VERTEX
  8
pCylinder12
 62
   251
 10
0.0
 20
0.0
 30
0.0
 70
   128
 71
   14
 72
   19
 73
   20
  0
VERTEX
  8
pCylinder12
 62
   251
 10
0.0
 20
0.0
 30
0.0
 70
   128
 71
   20
 72
   15
 73
   14
  0
VERTEX
  8
pCylinder12
 62
   251
 10
0.0
 20
0.0
 30
0.0
 70
   128
 71
   17
 72
   16
 73
   20
  0
VERTEX
  8
pCylinder12
 62
   251
 10
0.0
 20
0.0
 30
0.0
 70
   128
 71
   20
 72
   18
 73
   17
  0
VERTEX
  8
pCylinder12
 62
   251
 10
0.0
 20
0.0
 30
0.0
 70
   128
 71
   19
 72
   18
 73
   20
  0
VERTEX
  8
pCylinder12
 62
   251
 10
0.0
 20
0.0
 30
0.0
 70
   128
 71
   4
 72
   5
 73
   1
  0
VERTEX
  8
pCylinder12
 62
   251
 10
0.0
 20
0.0
 30
0.0
 70
   128
 71
   1
 72
   3
 73
   4
  0
VERTEX
  8
pCylinder12
 62
   251
 10
0.0
 20
0.0
 30
0.0
 70
   128
 71
   2
 72
   3
 73
   1
  0
SEQEND
  0
POLYLINE
  8
pCylinder13
 62
   251
 66
   1
 10
0.0
 20
0.0
 30
0.0
 70
   64
 71
   20
 72
   30
  0
VERTEX
  8
pCylinder13
 10
1.871881
 20
1.888152
 30
5.406428
 70
   192
  0
VERTEX
  8
pCylinder13
 10
1.871881
 20
1.647770
 30
4.949285
 70
   192
  0
VERTEX
  8
pCylinder13
 10
1.871881
 20
1.067437
 30
4.759930
 70
   192
  0
VERTEX
  8
pCylinder13
 10
1.871881
 20
0.487104
 30
4.949284
 70
   192
  0
VERTEX
  8
pCylinder13
 10
1.871881
 20
0.246723
 30
5.406428
 70
   192
  0
VERTEX
  8
pCylinder13
 10
1.848180
 20
1.936266
 30
5.406428
 70
   192
  0
VERTEX
  8
pCylinder13
 10
1.848180
 20
1.681792
 30
4.923398
 70
   192
  0
VERTEX
  8
pCylinder13
 10
1.848180
 20
1.067437
 30
4.723320
 70
   192
  0
VERTEX
  8
pCylinder13
 10
1.848180
 20
0.453083
 30
4.923397
 70
   192
  0
VERTEX
  8
pCylinder13
 10
1.848180
 20
0.198608
 30
5.406428
 70
   192
  0
VERTEX
  8
pCylinder13
 10
-4.605799
 20
1.932143
 30
5.406428
 70
   192
  0
VERTEX
  8
pCylinder13
 10
-4.605799
 20
1.678877
 30
4.925690
 70
   192
  0
VERTEX
  8
pCylinder13
 10
-4.605799
 20
1.067437
 30
4.726561
 70
   192
  0
VERTEX
  8
pCylinder13
 10
-4.605799
 20
0.455998
 30
4.925690
 70
   192
  0
VERTEX
  8
pCylinder13
 10
-4.605799
 20
0.202731
 30
5.406428
 70
   192
  0
VERTEX
  8
pCylinder13
 10
-4.634904
 20
1.888907
 30
5.406428
 70
   192
  0
VERTEX
  8
pCylinder13
 10
-4.634904
 20
1.648305
 30
4.949727
 70
   192
  0
VERTEX
  8
pCylinder13
 10
-4.634904
 20
1.067437
 30
4.760554
 70
   192
  0
VERTEX
  8
pCylinder13
 10
-4.634904
 20
0.486570
 30
4.949726
 70
   192
  0
VERTEX
  8
pCylinder13
 10
-4.634904
 20
0.245967
 30
5.406428
 70
   192
  0
VERTEX
  8
pCylinder13
 62
   251
 10
0.0
 20
0.0
 30
0.0
 70
   128
 71
   2
 72
   1
 73
   6
  0
VERTEX
  8
pCylinder13
 62
   251
 10
0.0
 20
0.0
 30
0.0
 70
   128
 71
   6
 72
   7
 73
   2
  0
VERTEX
  8
pCylinder13
 62
   251
 10
0.0
 20
0.0
 30
0.0
 70
   128
 71
   3
 72
   2
 73
   7
  0
VERTEX
  8
pCylinder13
 62
   251
 10
0.0
 20
0.0
 30
0.0
 70
   128
 71
   7
 72
   8
 73
   3
  0
VERTEX
  8
pCylinder13
 62
   251
 10
0.0
 20
0.0
 30
0.0
 70
   128
 71
   4
 72
   3
 73
   8
  0
VERTEX
  8
pCylinder13
 62
   251
 10
0.0
 20
0.0
 30
0.0
 70
   128
 71
   8
 72
   9
 73
   4
  0
VERTEX
  8
pCylinder13
 62
   251
 10
0.0
 20
0.0
 30
0.0
 70
   128
 71
   5
 72
   4
 73
   9
  0
VERTEX
  8
pCylinder13
 62
   251
 10
0.0
 20
0.0
 30
0.0
 70
   128
 71
   9
 72
   10
 73
   5
  0
VERTEX
  8
pCylinder13
 62
   251
 10
0.0
 20
0.0
 30
0.0
 70
   128
 71
   7
 72
   6
 73
   11
  0
VERTEX
  8
pCylinder13
 62
   251
 10
0.0
 20
0.0
 30
0.0
 70
   128
 71
   11
 72
   12
 73
   7
  0
VERTEX
  8
pCylinder13
 62
   251
 10
0.0
 20
0.0
 30
0.0
 70
   128
 71
   8
 72
   7
 73
   12
  0
VERTEX
  8
pCylinder13
 62
   251
 10
0.0
 20
0.0
 30
0.0
 70
   128
 71
   12
 72
   13
 73
   8
  0
VERTEX
  8
pCylinder13
 62
   251
 10
0.0
 20
0.0
 30
0.0
 70
   128
 71
   9
 72
   8
 73
   13
  0
VERTEX
  8
pCylinder13
 62
   251
 10
0.0
 20
0.0
 30
0.0
 70
   128
 71
   13
 72
   14
 73
   9
  0
VERTEX
  8
pCylinder13
 62
   251
 10
0.0
 20
0.0
 30
0.0
 70
   128
 71
   10
 72
   9
 73
   14
  0
VERTEX
  8
pCylinder13
 62
   251
 10
0.0
 20
0.0
 30
0.0
 70
   128
 71
   14
 72
   15
 73
   10
  0
VERTEX
  8
pCylinder13
 62
   251
 10
0.0
 20
0.0
 30
0.0
 70
   128
 71
   11
 72
   16
 73
   17
  0
VERTEX
  8
pCylinder13
 62
   251
 10
0.0
 20
0.0
 30
0.0
 70
   128
 71
   17
 72
   12
 73
   11
  0
VERTEX
  8
pCylinder13
 62
   251
 10
0.0
 20
0.0
 30
0.0
 70
   128
 71
   12
 72
   17
 73
   18
  0
VERTEX
  8
pCylinder13
 62
   251
 10
0.0
 20
0.0
 30
0.0
 70
   128
 71
   18
 72
   13
 73
   12
  0
VERTEX
  8
pCylinder13
 62
   251
 10
0.0
 20
0.0
 30
0.0
 70
   128
 71
   13
 72
   18
 73
   19
  0
VERTEX
  8
pCylinder13
 62
   251
 10
0.0
 20
0.0
 30
0.0
 70
   128
 71
   19
 72
   14
 73
   13
  0
VERTEX
  8
pCylinder13
 62
   251
 10
0.0
 20
0.0
 30
0.0
 70
   128
 71
   14
 72
   19
 73
   20
  0
VERTEX
  8
pCylinder13
 62
   251
 10
0.0
 20
0.0
 30
0.0
 70
   128
 71
   20
 72
   15
 73
   14
  0
VERTEX
  8
pCylinder13
 62
   251
 10
0.0
 20
0.0
 30
0.0
 70
   128
 71
   17
 72
   16
 73
   20
  0
VERTEX
  8
pCylinder13
 62
   251
 10
0.0
 20
0.0
 30
0.0
 70
   128
 71
   20
 72
   18
 73
   17
  0
VERTEX
  8
pCylinder13
 62
   251
 10
0.0
 20
0.0
 30
0.0
 70
   128
 71
   19
 72
   18
 73
   20
  0
VERTEX
  8
pCylinder13
 62
   251
 10
0.0
 20
0.0
 30
0.0
 70
   128
 71
   4
 72
   5
 73
   1
  0
VERTEX
  8
pCylinder13
 62
   251
 10
0.0
 20
0.0
 30
0.0
 70
   128
 71
   1
 72
   3
 73
   4
  0
VERTEX
  8
pCylinder13
 62
   251
 10
0.0
 20
0.0
 30
0.0
 70
   128
 71
   2
 72
   3
 73
   1
  0
SEQEND
  0
POLYLINE
  8
pCylinder14
 62
   251
 66
   1
 10
0.0
 20
0.0
 30
0.0
 70
   64
 71
   40
 72
   70
  0
VERTEX
  8
pCylinder14
 10
1.843552
 20
7.355120
 30
0.120515
 70
   192
  0
VERTEX
  8
pCylinder14
 10
1.423520
 20
7.757283
 30
0.102645
 70
   192
  0
VERTEX
  8
pCylinder14
 10
0.829505
 20
7.757283
 30
0.077373
 70
   192
  0
VERTEX
  8
pCylinder14
 10
0.409472
 20
7.355121
 30
0.059504
 70
   192
  0
VERTEX
  8
pCylinder14
 10
0.409472
 20
6.786378
 30
0.059503
 70
   192
  0
VERTEX
  8
pCylinder14
 10
0.829504
 20
6.384215
 30
0.077373
 70
   192
  0
VERTEX
  8
pCylinder14
 10
1.423519
 20
6.384215
 30
0.102645
 70
   192
  0
VERTEX
  8
pCylinder14
 10
1.843552
 20
6.786377
 30
0.120515
 70
   192
  0
VERTEX
  8
pCylinder14
 10
-3.847334
 20
7.287396
 30
6.044011
 70
   192
  0
VERTEX
  8
pCylinder14
 10
-3.934110
 20
7.471061
 30
5.957234
 70
   192
  0
VERTEX
  8
pCylinder14
 10
-4.063981
 20
7.593782
 30
5.827363
 70
   192
  0
VERTEX
  8
pCylinder14
 10
-4.217174
 20
7.636876
 30
5.674170
 70
   192
  0
VERTEX
  8
pCylinder14
 10
-4.370367
 20
7.593783
 30
5.520977
 70
   192
  0
VERTEX
  8
pCylinder14
 10
-4.500238
 20
7.471062
 30
5.391107
 70
   192
  0
VERTEX
  8
pCylinder14
 10
-4.587015
 20
7.287397
 30
5.304330
 70
   192
  0
VERTEX
  8
pCylinder14
 10
-4.617487
 20
7.070749
 30
5.273858
 70
   192
  0
VERTEX
  8
pCylinder14
 10
-4.587015
 20
6.854102
 30
5.304330
 70
   192
  0
VERTEX
  8
pCylinder14
 10
-4.500238
 20
6.670437
 30
5.391106
 70
   192
  0
VERTEX
  8
pCylinder14
 10
-4.370367
 20
6.547716
 30
5.520977
 70
   192
  0
VERTEX
  8
pCylinder14
 10
-4.217174
 20
6.504622
 30
5.674170
 70
   192
  0
VERTEX
  8
pCylinder14
 10
-4.063981
 20
6.547716
 30
5.827363
 70
   192
  0
VERTEX
  8
pCylinder14
 10
-3.934111
 20
6.670437
 30
5.957234
 70
   192
  0
VERTEX
  8
pCylinder14
 10
-3.847334
 20
6.854101
 30
6.044011
 70
   192
  0
VERTEX
  8
pCylinder14
 10
-3.816862
 20
7.070749
 30
6.074483
 70
   192
  0
VERTEX
  8
pCylinder14
 10
-3.889909
 20
7.276564
 30
6.049602
 70
   192
  0
VERTEX
  8
pCylinder14
 10
-3.972347
 20
7.451046
 30
5.967164
 70
   192
  0
VERTEX
  8
pCylinder14
 10
-4.095724
 20
7.567631
 30
5.843787
 70
   192
  0
VERTEX
  8
pCylinder14
 10
-4.241257
 20
7.608570
 30
5.698254
 70
   192
  0
VERTEX
  8
pCylinder14
 10
-4.386791
 20
7.567631
 30
5.552720
 70
   192
  0
VERTEX
  8
pCylinder14
 10
-4.510168
 20
7.451046
 30
5.429343
 70
   192
  0
VERTEX
  8
pCylinder14
 10
-4.592606
 20
7.276564
 30
5.346905
 70
   192
  0
VERTEX
  8
pCylinder14
 10
-4.621555
 20
7.070749
 30
5.317957
 70
   192
  0
VERTEX
  8
pCylinder14
 10
-4.592606
 20
6.864934
 30
5.346905
 70
   192
  0
VERTEX
  8
pCylinder14
 10
-4.510168
 20
6.690452
 30
5.429343
 70
   192
  0
VERTEX
  8
pCylinder14
 10
-4.386791
 20
6.573867
 30
5.552720
 70
   192
  0
VERTEX
  8
pCylinder14
 10
-4.241258
 20
6.532928
 30
5.698253
 70
   192
  0
VERTEX
  8
pCylinder14
 10
-4.095724
 20
6.573867
 30
5.843787
 70
   192
  0
VERTEX
  8
pCylinder14
 10
-3.972347
 20
6.690452
 30
5.967164
 70
   192
  0
VERTEX
  8
pCylinder14
 10
-3.889909
 20
6.864934
 30
6.049602
 70
   192
  0
VERTEX
  8
pCylinder14
 10
-3.860961
 20
7.070749
 30
6.078551
 70
   192
  0
VERTEX
  8
pCylinder14
 62
   251
 10
0.0
 20
0.0
 30
0.0
 70
   128
 71
   1
 72
   9
 73
   10
  0
VERTEX
  8
pCylinder14
 62
   251
 10
0.0
 20
0.0
 30
0.0
 70
   128
 71
   10
 72
   2
 73
   1
  0
VERTEX
  8
pCylinder14
 62
   251
 10
0.0
 20
0.0
 30
0.0
 70
   128
 71
   11
 72
   2
 73
   10
  0
VERTEX
  8
pCylinder14
 62
   251
 10
0.0
 20
0.0
 30
0.0
 70
   128
 71
   2
 72
   11
 73
   12
  0
VERTEX
  8
pCylinder14
 62
   251
 10
0.0
 20
0.0
 30
0.0
 70
   128
 71
   12
 72
   3
 73
   2
  0
VERTEX
  8
pCylinder14
 62
   251
 10
0.0
 20
0.0
 30
0.0
 70
   128
 71
   13
 72
   3
 73
   12
  0
VERTEX
  8
pCylinder14
 62
   251
 10
0.0
 20
0.0
 30
0.0
 70
   128
 71
   3
 72
   13
 73
   14
  0
VERTEX
  8
pCylinder14
 62
   251
 10
0.0
 20
0.0
 30
0.0
 70
   128
 71
   14
 72
   4
 73
   3
  0
VERTEX
  8
pCylinder14
 62
   251
 10
0.0
 20
0.0
 30
0.0
 70
   128
 71
   15
 72
   4
 73
   14
  0
VERTEX
  8
pCylinder14
 62
   251
 10
0.0
 20
0.0
 30
0.0
 70
   128
 71
   4
 72
   15
 73
   16
  0
VERTEX
  8
pCylinder14
 62
   251
 10
0.0
 20
0.0
 30
0.0
 70
   128
 71
   16
 72
   5
 73
   4
  0
VERTEX
  8
pCylinder14
 62
   251
 10
0.0
 20
0.0
 30
0.0
 70
   128
 71
   17
 72
   5
 73
   16
  0
VERTEX
  8
pCylinder14
 62
   251
 10
0.0
 20
0.0
 30
0.0
 70
   128
 71
   5
 72
   17
 73
   18
  0
VERTEX
  8
pCylinder14
 62
   251
 10
0.0
 20
0.0
 30
0.0
 70
   128
 71
   18
 72
   6
 73
   5
  0
VERTEX
  8
pCylinder14
 62
   251
 10
0.0
 20
0.0
 30
0.0
 70
   128
 71
   19
 72
   6
 73
   18
  0
VERTEX
  8
pCylinder14
 62
   251
 10
0.0
 20
0.0
 30
0.0
 70
   128
 71
   6
 72
   19
 73
   20
  0
VERTEX
  8
pCylinder14
 62
   251
 10
0.0
 20
0.0
 30
0.0
 70
   128
 71
   20
 72
   7
 73
   6
  0
VERTEX
  8
pCylinder14
 62
   251
 10
0.0
 20
0.0
 30
0.0
 70
   128
 71
   21
 72
   7
 73
   20
  0
VERTEX
  8
pCylinder14
 62
   251
 10
0.0
 20
0.0
 30
0.0
 70
   128
 71
   7
 72
   21
 73
   22
  0
VERTEX
  8
pCylinder14
 62
   251
 10
0.0
 20
0.0
 30
0.0
 70
   128
 71
   22
 72
   8
 73
   7
  0
VERTEX
  8
pCylinder14
 62
   251
 10
0.0
 20
0.0
 30
0.0
 70
   128
 71
   23
 72
   8
 73
   22
  0
VERTEX
  8
pCylinder14
 62
   251
 10
0.0
 20
0.0
 30
0.0
 70
   128
 71
   8
 72
   23
 73
   24
  0
VERTEX
  8
pCylinder14
 62
   251
 10
0.0
 20
0.0
 30
0.0
 70
   128
 71
   24
 72
   1
 73
   8
  0
VERTEX
  8
pCylinder14
 62
   251
 10
0.0
 20
0.0
 30
0.0
 70
   128
 71
   9
 72
   1
 73
   24
  0
VERTEX
  8
pCylinder14
 62
   251
 10
0.0
 20
0.0
 30
0.0
 70
   128
 71
   26
 72
   10
 73
   9
  0
VERTEX
  8
pCylinder14
 62
   251
 10
0.0
 20
0.0
 30
0.0
 70
   128
 71
   9
 72
   25
 73
   26
  0
VERTEX
  8
pCylinder14
 62
   251
 10
0.0
 20
0.0
 30
0.0
 70
   128
 71
   27
 72
   11
 73
   10
  0
VERTEX
  8
pCylinder14
 62
   251
 10
0.0
 20
0.0
 30
0.0
 70
   128
 71
   10
 72
   26
 73
   27
  0
VERTEX
  8
pCylinder14
 62
   251
 10
0.0
 20
0.0
 30
0.0
 70
   128
 71
   28
 72
   12
 73
   11
  0
VERTEX
  8
pCylinder14
 62
   251
 10
0.0
 20
0.0
 30
0.0
 70
   128
 71
   11
 72
   27
 73
   28
  0
VERTEX
  8
pCylinder14
 62
   251
 10
0.0
 20
0.0
 30
0.0
 70
   128
 71
   29
 72
   13
 73
   12
  0
VERTEX
  8
pCylinder14
 62
   251
 10
0.0
 20
0.0
 30
0.0
 70
   128
 71
   12
 72
   28
 73
   29
  0
VERTEX
  8
pCylinder14
 62
   251
 10
0.0
 20
0.0
 30
0.0
 70
   128
 71
   30
 72
   14
 73
   13
  0
VERTEX
  8
pCylinder14
 62
   251
 10
0.0
 20
0.0
 30
0.0
 70
   128
 71
   13
 72
   29
 73
   30
  0
VERTEX
  8
pCylinder14
 62
   251
 10
0.0
 20
0.0
 30
0.0
 70
   128
 71
   31
 72
   15
 73
   14
  0
VERTEX
  8
pCylinder14
 62
   251
 10
0.0
 20
0.0
 30
0.0
 70
   128
 71
   14
 72
   30
 73
   31
  0
VERTEX
  8
pCylinder14
 62
   251
 10
0.0
 20
0.0
 30
0.0
 70
   128
 71
   32
 72
   16
 73
   15
  0
VERTEX
  8
pCylinder14
 62
   251
 10
0.0
 20
0.0
 30
0.0
 70
   128
 71
   15
 72
   31
 73
   32
  0
VERTEX
  8
pCylinder14
 62
   251
 10
0.0
 20
0.0
 30
0.0
 70
   128
 71
   33
 72
   17
 73
   16
  0
VERTEX
  8
pCylinder14
 62
   251
 10
0.0
 20
0.0
 30
0.0
 70
   128
 71
   16
 72
   32
 73
   33
  0
VERTEX
  8
pCylinder14
 62
   251
 10
0.0
 20
0.0
 30
0.0
 70
   128
 71
   34
 72
   18
 73
   17
  0
VERTEX
  8
pCylinder14
 62
   251
 10
0.0
 20
0.0
 30
0.0
 70
   128
 71
   17
 72
   33
 73
   34
  0
VERTEX
  8
pCylinder14
 62
   251
 10
0.0
 20
0.0
 30
0.0
 70
   128
 71
   35
 72
   19
 73
   18
  0
VERTEX
  8
pCylinder14
 62
   251
 10
0.0
 20
0.0
 30
0.0
 70
   128
 71
   18
 72
   34
 73
   35
  0
VERTEX
  8
pCylinder14
 62
   251
 10
0.0
 20
0.0
 30
0.0
 70
   128
 71
   36
 72
   20
 73
   19
  0
VERTEX
  8
pCylinder14
 62
   251
 10
0.0
 20
0.0
 30
0.0
 70
   128
 71
   19
 72
   35
 73
   36
  0
VERTEX
  8
pCylinder14
 62
   251
 10
0.0
 20
0.0
 30
0.0
 70
   128
 71
   37
 72
   21
 73
   20
  0
VERTEX
  8
pCylinder14
 62
   251
 10
0.0
 20
0.0
 30
0.0
 70
   128
 71
   20
 72
   36
 73
   37
  0
VERTEX
  8
pCylinder14
 62
   251
 10
0.0
 20
0.0
 30
0.0
 70
   128
 71
   38
 72
   22
 73
   21
  0
VERTEX
  8
pCylinder14
 62
   251
 10
0.0
 20
0.0
 30
0.0
 70
   128
 71
   21
 72
   37
 73
   38
  0
VERTEX
  8
pCylinder14
 62
   251
 10
0.0
 20
0.0
 30
0.0
 70
   128
 71
   39
 72
   23
 73
   22
  0
VERTEX
  8
pCylinder14
 62
   251
 10
0.0
 20
0.0
 30
0.0
 70
   128
 71
   22
 72
   38
 73
   39
  0
VERTEX
  8
pCylinder14
 62
   251
 10
0.0
 20
0.0
 30
0.0
 70
   128
 71
   40
 72
   24
 73
   23
  0
VERTEX
  8
pCylinder14
 62
   251
 10
0.0
 20
0.0
 30
0.0
 70
   128
 71
   23
 72
   39
 73
   40
  0
VERTEX
  8
pCylinder14
 62
   251
 10
0.0
 20
0.0
 30
0.0
 70
   128
 71
   25
 72
   9
 73
   24
  0
VERTEX
  8
pCylinder14
 62
   251
 10
0.0
 20
0.0
 30
0.0
 70
   128
 71
   24
 72
   40
 73
   25
  0
VERTEX
  8
pCylinder14
 62
   251
 10
0.0
 20
0.0
 30
0.0
 70
   128
 71
   26
 72
   25
 73
   40
  0
VERTEX
  8
pCylinder14
 62
   251
 10
0.0
 20
0.0
 30
0.0
 70
   128
 71
   40
 72
   27
 73
   26
  0
VERTEX
  8
pCylinder14
 62
   251
 10
0.0
 20
0.0
 30
0.0
 70
   128
 71
   39
 72
   27
 73
   40
  0
VERTEX
  8
pCylinder14
 62
   251
 10
0.0
 20
0.0
 30
0.0
 70
   128
 71
   39
 72
   28
 73
   27
  0
VERTEX
  8
pCylinder14
 62
   251
 10
0.0
 20
0.0
 30
0.0
 70
   128
 71
   38
 72
   28
 73
   39
  0
VERTEX
  8
pCylinder14
 62
   251
 10
0.0
 20
0.0
 30
0.0
 70
   128
 71
   38
 72
   29
 73
   28
  0
VERTEX
  8
pCylinder14
 62
   251
 10
0.0
 20
0.0
 30
0.0
 70
   128
 71
   37
 72
   29
 73
   38
  0
VERTEX
  8
pCylinder14
 62
   251
 10
0.0
 20
0.0
 30
0.0
 70
   128
 71
   37
 72
   30
 73
   29
  0
VERTEX
  8
pCylinder14
 62
   251
 10
0.0
 20
0.0
 30
0.0
 70
   128
 71
   36
 72
   30
 73
   37
  0
VERTEX
  8
pCylinder14
 62
   251
 10
0.0
 20
0.0
 30
0.0
 70
   128
 71
   36
 72
   31
 73
   30
  0
VERTEX
  8
pCylinder14
 62
   251
 10
0.0
 20
0.0
 30
0.0
 70
   128
 71
   35
 72
   31
 73
   36
  0
VERTEX
  8
pCylinder14
 62
   251
 10
0.0
 20
0.0
 30
0.0
 70
   128
 71
   35
 72
   32
 73
   31
  0
VERTEX
  8
pCylinder14
 62
   251
 10
0.0
 20
0.0
 30
0.0
 70
   128
 71
   34
 72
   32
 73
   35
  0
VERTEX
  8
pCylinder14
 62
   251
 10
0.0
 20
0.0
 30
0.0
 70
   128
 71
   34
 72
   33
 73
   32
  0
SEQEND
  0
POLYLINE
  8
pCylinder15
 62
   251
 66
   1
 10
0.0
 20
0.0
 30
0.0
 70
   64
 71
   24
 72
   24
  0
VERTEX
  8
pCylinder15
 10
-4.912323
 20
7.355120
 30
0.090901
 70
   192
  0
VERTEX
  8
pCylinder15
 10
-4.517865
 20
7.757283
 30
0.098606
 70
   192
  0
VERTEX
  8
pCylinder15
 10
-3.960018
 20
7.757283
 30
0.109502
 70
   192
  0
VERTEX
  8
pCylinder15
 10
-3.565561
 20
7.355121
 30
0.117207
 70
   192
  0
VERTEX
  8
pCylinder15
 10
-3.565561
 20
6.786378
 30
0.117207
 70
   192
  0
VERTEX
  8
pCylinder15
 10
-3.960018
 20
6.384215
 30
0.109502
 70
   192
  0
VERTEX
  8
pCylinder15
 10
-4.517865
 20
6.384215
 30
0.098606
 70
   192
  0
VERTEX
  8
pCylinder15
 10
-4.912322
 20
6.786377
 30
0.090901
 70
   192
  0
VERTEX
  8
pCylinder15
 10
0.792148
 20
7.287396
 30
6.000811
 70
   192
  0
VERTEX
  8
pCylinder15
 10
0.868789
 20
7.471061
 30
5.924170
 70
   192
  0
VERTEX
  8
pCylinder15
 10
0.983490
 20
7.593782
 30
5.809469
 70
   192
  0
VERTEX
  8
pCylinder15
 10
1.118789
 20
7.636876
 30
5.674170
 70
   192
  0
VERTEX
  8
pCylinder15
 10
1.254088
 20
7.593783
 30
5.538871
 70
   192
  0
VERTEX
  8
pCylinder15
 10
1.368789
 20
7.471062
 30
5.424170
 70
   192
  0
VERTEX
  8
pCylinder15
 10
1.445430
 20
7.287397
 30
5.347529
 70
   192
  0
VERTEX
  8
pCylinder15
 10
1.472343
 20
7.070749
 30
5.320617
 70
   192
  0
VERTEX
  8
pCylinder15
 10
1.445430
 20
6.854102
 30
5.347529
 70
   192
  0
VERTEX
  8
pCylinder15
 10
1.368789
 20
6.670437
 30
5.424170
 70
   192
  0
VERTEX
  8
pCylinder15
 10
1.254088
 20
6.547716
 30
5.538871
 70
   192
  0
VERTEX
  8
pCylinder15
 10
1.118789
 20
6.504622
 30
5.674170
 70
   192
  0
VERTEX
  8
pCylinder15
 10
0.983490
 20
6.547716
 30
5.809469
 70
   192
  0
VERTEX
  8
pCylinder15
 10
0.868789
 20
6.670437
 30
5.924170
 70
   192
  0
VERTEX
  8
pCylinder15
 10
0.792149
 20
6.854101
 30
6.000811
 70
   192
  0
VERTEX
  8
pCylinder15
 10
0.765236
 20
7.070749
 30
6.027723
 70
   192
  0
VERTEX
  8
pCylinder15
 62
   251
 10
0.0
 20
0.0
 30
0.0
 70
   128
 71
   1
 72
   9
 73
   10
  0
VERTEX
  8
pCylinder15
 62
   251
 10
0.0
 20
0.0
 30
0.0
 70
   128
 71
   10
 72
   2
 73
   1
  0
VERTEX
  8
pCylinder15
 62
   251
 10
0.0
 20
0.0
 30
0.0
 70
   128
 71
   11
 72
   2
 73
   10
  0
VERTEX
  8
pCylinder15
 62
   251
 10
0.0
 20
0.0
 30
0.0
 70
   128
 71
   2
 72
   11
 73
   12
  0
VERTEX
  8
pCylinder15
 62
   251
 10
0.0
 20
0.0
 30
0.0
 70
   128
 71
   12
 72
   3
 73
   2
  0
VERTEX
  8
pCylinder15
 62
   251
 10
0.0
 20
0.0
 30
0.0
 70
   128
 71
   13
 72
   3
 73
   12
  0
VERTEX
  8
pCylinder15
 62
   251
 10
0.0
 20
0.0
 30
0.0
 70
   128
 71
   3
 72
   13
 73
   14
  0
VERTEX
  8
pCylinder15
 62
   251
 10
0.0
 20
0.0
 30
0.0
 70
   128
 71
   14
 72
   4
 73
   3
  0
VERTEX
  8
pCylinder15
 62
   251
 10
0.0
 20
0.0
 30
0.0
 70
   128
 71
   15
 72
   4
 73
   14
  0
VERTEX
  8
pCylinder15
 62
   251
 10
0.0
 20
0.0
 30
0.0
 70
   128
 71
   4
 72
   15
 73
   16
  0
VERTEX
  8
pCylinder15
 62
   251
 10
0.0
 20
0.0
 30
0.0
 70
   128
 71
   16
 72
   5
 73
   4
  0
VERTEX
  8
pCylinder15
 62
   251
 10
0.0
 20
0.0
 30
0.0
 70
   128
 71
   17
 72
   5
 73
   16
  0
VERTEX
  8
pCylinder15
 62
   251
 10
0.0
 20
0.0
 30
0.0
 70
   128
 71
   5
 72
   17
 73
   18
  0
VERTEX
  8
pCylinder15
 62
   251
 10
0.0
 20
0.0
 30
0.0
 70
   128
 71
   18
 72
   6
 73
   5
  0
VERTEX
  8
pCylinder15
 62
   251
 10
0.0
 20
0.0
 30
0.0
 70
   128
 71
   19
 72
   6
 73
   18
  0
VERTEX
  8
pCylinder15
 62
   251
 10
0.0
 20
0.0
 30
0.0
 70
   128
 71
   6
 72
   19
 73
   20
  0
VERTEX
  8
pCylinder15
 62
   251
 10
0.0
 20
0.0
 30
0.0
 70
   128
 71
   20
 72
   7
 73
   6
  0
VERTEX
  8
pCylinder15
 62
   251
 10
0.0
 20
0.0
 30
0.0
 70
   128
 71
   21
 72
   7
 73
   20
  0
VERTEX
  8
pCylinder15
 62
   251
 10
0.0
 20
0.0
 30
0.0
 70
   128
 71
   7
 72
   21
 73
   22
  0
VERTEX
  8
pCylinder15
 62
   251
 10
0.0
 20
0.0
 30
0.0
 70
   128
 71
   22
 72
   8
 73
   7
  0
VERTEX
  8
pCylinder15
 62
   251
 10
0.0
 20
0.0
 30
0.0
 70
   128
 71
   23
 72
   8
 73
   22
  0
VERTEX
  8
pCylinder15
 62
   251
 10
0.0
 20
0.0
 30
0.0
 70
   128
 71
   8
 72
   23
 73
   24
  0
VERTEX
  8
pCylinder15
 62
   251
 10
0.0
 20
0.0
 30
0.0
 70
   128
 71
   24
 72
   1
 73
   8
  0
VERTEX
  8
pCylinder15
 62
   251
 10
0.0
 20
0.0
 30
0.0
 70
   128
 71
   9
 72
   1
 73
   24
  0
SEQEND
  0
POLYLINE
  8
pPlane2
 62
   251
 66
   1
 10
0.0
 20
0.0
 30
0.0
 70
   64
 71
   4
 72
   2
  0
VERTEX
  8
pPlane2
 10
-4.927775
 20
6.266014
 30
5.677349
 70
   192
  0
VERTEX
  8
pPlane2
 10
2.224095
 20
6.266014
 30
5.677349
 70
   192
  0
VERTEX
  8
pPlane2
 10
-4.927775
 20
8.302498
 30
6.223023
 70
   192
  0
VERTEX
  8
pPlane2
 10
2.224095
 20
8.302498
 30
6.223023
 70
   192
  0
VERTEX
  8
pPlane2
 62
   251
 10
0.0
 20
0.0
 30
0.0
 70
   128
 71
   4
 72
   2
 73
   1
  0
VERTEX
  8
pPlane2
 62
   251
 10
0.0
 20
0.0
 30
0.0
 70
   128
 71
   1
 72
   3
 73
   4
  0
SEQEND
  0
POLYLINE
  8
pPlane3
 62
   251
 66
   1
 10
0.0
 20
0.0
 30
0.0
 70
   64
 71
   4
 72
   2
  0
VERTEX
  8
pPlane3
 10
1.768657
 20
6.103819
 30
6.325235
 70
   192
  0
VERTEX
  8
pPlane3
 10
1.010085
 20
6.423219
 30
5.049059
 70
   192
  0
VERTEX
  8
pPlane3
 10
1.743186
 20
8.145294
 30
6.851313
 70
   192
  0
VERTEX
  8
pPlane3
 10
0.984614
 20
8.464694
 30
5.575137
 70
   192
  0
VERTEX
  8
pPlane3
 62
   251
 10
0.0
 20
0.0
 30
0.0
 70
   128
 71
   4
 72
   2
 73
   1
  0
VERTEX
  8
pPlane3
 62
   251
 10
0.0
 20
0.0
 30
0.0
 70
   128
 71
   1
 72
   3
 73
   4
  0
SEQEND
  0
POLYLINE
  8
pPlane4
 62
   251
 66
   1
 10
0.0
 20
0.0
 30
0.0
 70
   64
 71
   4
 72
   2
  0
VERTEX
  8
pPlane4
 10
-4.057462
 20
6.436144
 30
5.042416
 70
   192
  0
VERTEX
  8
pPlane4
 10
-4.817553
 20
6.095885
 30
6.312282
 70
   192
  0
VERTEX
  8
pPlane4
 10
-4.057462
 20
8.472628
 30
5.588090
 70
   192
  0
VERTEX
  8
pPlane4
 10
-4.817553
 20
8.132369
 30
6.857956
 70
   192
  0
VERTEX
  8
pPlane4
 62
   251
 10
0.0
 20
0.0
 30
0.0
 70
   128
 71
   4
 72
   2
 73
   1
  0
VERTEX
  8
pPlane4
 62
   251
 10
0.0
 20
0.0
 30
0.0
 70
   128
 71
   1
 72
   3
 73
   4
  0
SEQEND
  0
POLYLINE
  8
pPlane5
 62
   251
 66
   1
 10
0.0
 20
0.0
 30
0.0
 70
   64
 71
   4
 72
   2
  0
VERTEX
  8
pPlane5
 10
-0.674049
 20
6.402852
 30
5.166662
 70
   192
  0
VERTEX
  8
pPlane5
 10
0.415891
 20
6.129176
 30
6.188036
 70
   192
  0
VERTEX
  8
pPlane5
 10
-0.674049
 20
8.439336
 30
5.712336
 70
   192
  0
VERTEX
  8
pPlane5
 10
0.415891
 20
8.165660
 30
6.733710
 70
   192
  0
VERTEX
  8
pPlane5
 62
   251
 10
0.0
 20
0.0
 30
0.0
 70
   128
 71
   4
 72
   2
 73
   1
  0
VERTEX
  8
pPlane5
 62
   251
 10
0.0
 20
0.0
 30
0.0
 70
   128
 71
   1
 72
   3
 73
   4
  0
SEQEND
  0
POLYLINE
  8
pPlane7
 62
   251
 66
   1
 10
0.0
 20
0.0
 30
0.0
 70
   64
 71
   4
 72
   2
  0
VERTEX
  8
pPlane7
 10
1.768657
 20
6.103819
 30
6.325235
 70
   192
  0
VERTEX
  8
pPlane7
 10
1.010085
 20
6.423219
 30
5.049059
 70
   192
  0
VERTEX
  8
pPlane7
 10
1.743186
 20
8.145294
 30
6.851313
 70
   192
  0
VERTEX
  8
pPlane7
 10
0.984614
 20
8.464694
 30
5.575137
 70
   192
  0
VERTEX
  8
pPlane7
 62
   251
 10
0.0
 20
0.0
 30
0.0
 70
   128
 71
   4
 72
   2
 73
   1
  0
VERTEX
  8
pPlane7
 62
   251
 10
0.0
 20
0.0
 30
0.0
 70
   128
 71
   1
 72
   3
 73
   4
  0
SEQEND
  0
POLYLINE
  8
pPlane8
 62
   251
 66
   1
 10
0.0
 20
0.0
 30
0.0
 70
   64
 71
   4
 72
   2
  0
VERTEX
  8
pPlane8
 10
0.679002
 20
6.436144
 30
5.042416
 70
   192
  0
VERTEX
  8
pPlane8
 10
-0.081088
 20
6.095885
 30
6.312282
 70
   192
  0
VERTEX
  8
pPlane8
 10
0.679002
 20
8.472628
 30
5.588090
 70
   192
  0
VERTEX
  8
pPlane8
 10
-0.081088
 20
8.132369
 30
6.857956
 70
   192
  0
VERTEX
  8
pPlane8
 62
   251
 10
0.0
 20
0.0
 30
0.0
 70
   128
 71
   4
 72
   2
 73
   1
  0
VERTEX
  8
pPlane8
 62
   251
 10
0.0
 20
0.0
 30
0.0
 70
   128
 71
   1
 72
   3
 73
   4
  0
SEQEND
  0
POLYLINE
  8
pPlane9
 62
   251
 66
   1
 10
0.0
 20
0.0
 30
0.0
 70
   64
 71
   4
 72
   2
  0
VERTEX
  8
pPlane9
 10
-0.674049
 20
6.402852
 30
5.166662
 70
   192
  0
VERTEX
  8
pPlane9
 10
0.415891
 20
6.129176
 30
6.188036
 70
   192
  0
VERTEX
  8
pPlane9
 10
-0.674049
 20
8.439336
 30
5.712336
 70
   192
  0
VERTEX
  8
pPlane9
 10
0.415891
 20
8.165660
 30
6.733710
 70
   192
  0
VERTEX
  8
pPlane9
 62
   251
 10
0.0
 20
0.0
 30
0.0
 70
   128
 71
   4
 72
   2
 73
   1
  0
VERTEX
  8
pPlane9
 62
   251
 10
0.0
 20
0.0
 30
0.0
 70
   128
 71
   1
 72
   3
 73
   4
  0
SEQEND
  0
POLYLINE
  8
pPlane10
 62
   251
 66
   1
 10
0.0
 20
0.0
 30
0.0
 70
   64
 71
   4
 72
   2
  0
VERTEX
  8
pPlane10
 10
0.679002
 20
6.436144
 30
5.042416
 70
   192
  0
VERTEX
  8
pPlane10
 10
-0.081088
 20
6.095885
 30
6.312282
 70
   192
  0
VERTEX
  8
pPlane10
 10
0.679002
 20
8.472628
 30
5.588090
 70
   192
  0
VERTEX
  8
pPlane10
 10
-0.081088
 20
8.132369
 30
6.857956
 70
   192
  0
VERTEX
  8
pPlane10
 62
   251
 10
0.0
 20
0.0
 30
0.0
 70
   128
 71
   4
 72
   2
 73
   1
  0
VERTEX
  8
pPlane10
 62
   251
 10
0.0
 20
0.0
 30
0.0
 70
   128
 71
   1
 72
   3
 73
   4
  0
SEQEND
  0
POLYLINE
  8
pPlane11
 62
   251
 66
   1
 10
0.0
 20
0.0
 30
0.0
 70
   64
 71
   4
 72
   2
  0
VERTEX
  8
pPlane11
 10
-2.731089
 20
6.402852
 30
5.166662
 70
   192
  0
VERTEX
  8
pPlane11
 10
-1.641149
 20
6.129176
 30
6.188036
 70
   192
  0
VERTEX
  8
pPlane11
 10
-2.731089
 20
8.439336
 30
5.712336
 70
   192
  0
VERTEX
  8
pPlane11
 10
-1.641149
 20
8.165660
 30
6.733710
 70
   192
  0
VERTEX
  8
pPlane11
 62
   251
 10
0.0
 20
0.0
 30
0.0
 70
   128
 71
   4
 72
   2
 73
   1
  0
VERTEX
  8
pPlane11
 62
   251
 10
0.0
 20
0.0
 30
0.0
 70
   128
 71
   1
 72
   3
 73
   4
  0
SEQEND
  0
POLYLINE
  8
pPlane12
 62
   251
 66
   1
 10
0.0
 20
0.0
 30
0.0
 70
   64
 71
   4
 72
   2
  0
VERTEX
  8
pPlane12
 10
-2.439026
 20
6.436144
 30
5.042416
 70
   192
  0
VERTEX
  8
pPlane12
 10
-3.199117
 20
6.095885
 30
6.312282
 70
   192
  0
VERTEX
  8
pPlane12
 10
-2.439026
 20
8.472628
 30
5.588090
 70
   192
  0
VERTEX
  8
pPlane12
 10
-3.199117
 20
8.132369
 30
6.857956
 70
   192
  0
VERTEX
  8
pPlane12
 62
   251
 10
0.0
 20
0.0
 30
0.0
 70
   128
 71
   4
 72
   2
 73
   1
  0
VERTEX
  8
pPlane12
 62
   251
 10
0.0
 20
0.0
 30
0.0
 70
   128
 71
   1
 72
   3
 73
   4
  0
SEQEND
  0
POLYLINE
  8
pPlane13
 62
   251
 66
   1
 10
0.0
 20
0.0
 30
0.0
 70
   64
 71
   4
 72
   2
  0
VERTEX
  8
pPlane13
 10
1.738418
 20
-6.601024
 30
6.830792
 70
   192
  0
VERTEX
  8
pPlane13
 10
0.979846
 20
-6.962503
 30
5.565891
 70
   192
  0
VERTEX
  8
pPlane13
 10
1.712946
 20
-4.570015
 30
6.265651
 70
   192
  0
VERTEX
  8
pPlane13
 10
0.954374
 20
-4.931495
 30
5.000750
 70
   192
  0
VERTEX
  8
pPlane13
 62
   251
 10
0.0
 20
0.0
 30
0.0
 70
   128
 71
   4
 72
   2
 73
   1
  0
VERTEX
  8
pPlane13
 62
   251
 10
0.0
 20
0.0
 30
0.0
 70
   128
 71
   1
 72
   3
 73
   4
  0
SEQEND
  0
POLYLINE
  8
pPlane14
 62
   251
 66
   1
 10
0.0
 20
0.0
 30
0.0
 70
   64
 71
   4
 72
   2
  0
VERTEX
  8
pPlane14
 10
-0.704288
 20
-6.921339
 30
5.677921
 70
   192
  0
VERTEX
  8
pPlane14
 10
0.385652
 20
-6.647663
 30
6.699295
 70
   192
  0
VERTEX
  8
pPlane14
 10
-0.704288
 20
-4.884855
 30
5.132247
 70
   192
  0
VERTEX
  8
pPlane14
 10
0.385652
 20
-4.611179
 30
6.153621
 70
   192
  0
VERTEX
  8
pPlane14
 62
   251
 10
0.0
 20
0.0
 30
0.0
 70
   128
 71
   4
 72
   2
 73
   1
  0
VERTEX
  8
pPlane14
 62
   251
 10
0.0
 20
0.0
 30
0.0
 70
   128
 71
   1
 72
   3
 73
   4
  0
SEQEND
  0
POLYLINE
  8
pPlane16
 62
   251
 66
   1
 10
0.0
 20
0.0
 30
0.0
 70
   64
 71
   4
 72
   2
  0
VERTEX
  8
pPlane16
 10
0.648763
 20
-6.954631
 30
5.553675
 70
   192
  0
VERTEX
  8
pPlane16
 10
-0.111328
 20
-6.614371
 30
6.823541
 70
   192
  0
VERTEX
  8
pPlane16
 10
0.648763
 20
-4.918147
 30
5.008001
 70
   192
  0
VERTEX
  8
pPlane16
 10
-0.111328
 20
-4.577887
 30
6.277867
 70
   192
  0
VERTEX
  8
pPlane16
 62
   251
 10
0.0
 20
0.0
 30
0.0
 70
   128
 71
   4
 72
   2
 73
   1
  0
VERTEX
  8
pPlane16
 62
   251
 10
0.0
 20
0.0
 30
0.0
 70
   128
 71
   1
 72
   3
 73
   4
  0
SEQEND
  0
POLYLINE
  8
pPlane19
 62
   251
 66
   1
 10
0.0
 20
0.0
 30
0.0
 70
   64
 71
   4
 72
   2
  0
VERTEX
  8
pPlane19
 10
-2.761329
 20
-6.921339
 30
5.677921
 70
   192
  0
VERTEX
  8
pPlane19
 10
-1.671388
 20
-6.647663
 30
6.699295
 70
   192
  0
VERTEX
  8
pPlane19
 10
-2.761329
 20
-4.884855
 30
5.132247
 70
   192
  0
VERTEX
  8
pPlane19
 10
-1.671388
 20
-4.611179
 30
6.153621
 70
   192
  0
VERTEX
  8
pPlane19
 62
   251
 10
0.0
 20
0.0
 30
0.0
 70
   128
 71
   4
 72
   2
 73
   1
  0
VERTEX
  8
pPlane19
 62
   251
 10
0.0
 20
0.0
 30
0.0
 70
   128
 71
   1
 72
   3
 73
   4
  0
SEQEND
  0
POLYLINE
  8
pPlane20
 62
   251
 66
   1
 10
0.0
 20
0.0
 30
0.0
 70
   64
 71
   4
 72
   2
  0
VERTEX
  8
pPlane20
 10
-2.469265
 20
-6.954631
 30
5.553675
 70
   192
  0
VERTEX
  8
pPlane20
 10
-3.229356
 20
-6.614371
 30
6.823541
 70
   192
  0
VERTEX
  8
pPlane20
 10
-2.469265
 20
-4.918147
 30
5.008001
 70
   192
  0
VERTEX
  8
pPlane20
 10
-3.229356
 20
-4.577887
 30
6.277867
 70
   192
  0
VERTEX
  8
pPlane20
 62
   251
 10
0.0
 20
0.0
 30
0.0
 70
   128
 71
   4
 72
   2
 73
   1
  0
VERTEX
  8
pPlane20
 62
   251
 10
0.0
 20
0.0
 30
0.0
 70
   128
 71
   1
 72
   3
 73
   4
  0
SEQEND
  0
POLYLINE
  8
pPlane22
 62
   251
 66
   1
 10
0.0
 20
0.0
 30
0.0
 70
   64
 71
   4
 72
   2
  0
VERTEX
  8
pPlane22
 10
-4.958015
 20
-6.784501
 30
6.188608
 70
   192
  0
VERTEX
  8
pPlane22
 10
2.193855
 20
-6.784501
 30
6.188608
 70
   192
  0
VERTEX
  8
pPlane22
 10
-4.958015
 20
-4.748017
 30
5.642934
 70
   192
  0
VERTEX
  8
pPlane22
 10
2.193855
 20
-4.748017
 30
5.642934
 70
   192
  0
VERTEX
  8
pPlane22
 62
   251
 10
0.0
 20
0.0
 30
0.0
 70
   128
 71
   4
 72
   2
 73
   1
  0
VERTEX
  8
pPlane22
 62
   251
 10
0.0
 20
0.0
 30
0.0
 70
   128
 71
   1
 72
   3
 73
   4
  0
SEQEND
  0
POLYLINE
  8
pPlane23
 62
   251
 66
   1
 10
0.0
 20
0.0
 30
0.0
 70
   64
 71
   4
 72
   2
  0
VERTEX
  8
pPlane23
 10
-3.180453
 20
-6.954631
 30
5.553675
 70
   192
  0
VERTEX
  8
pPlane23
 10
-3.940544
 20
-6.614371
 30
6.823541
 70
   192
  0
VERTEX
  8
pPlane23
 10
-3.180453
 20
-4.918147
 30
5.008001
 70
   192
  0
VERTEX
  8
pPlane23
 10
-3.940544
 20
-4.577887
 30
6.277867
 70
   192
  0
VERTEX
  8
pPlane23
 62
   251
 10
0.0
 20
0.0
 30
0.0
 70
   128
 71
   4
 72
   2
 73
   1
  0
VERTEX
  8
pPlane23
 62
   251
 10
0.0
 20
0.0
 30
0.0
 70
   128
 71
   1
 72
   3
 73
   4
  0
SEQEND
  0
POLYLINE
  8
pPlane24
 62
   251
 66
   1
 10
0.0
 20
0.0
 30
0.0
 70
   64
 71
   4
 72
   2
  0
VERTEX
  8
pPlane24
 10
-4.734393
 20
-6.921339
 30
5.677921
 70
   192
  0
VERTEX
  8
pPlane24
 10
-3.644453
 20
-6.647663
 30
6.699295
 70
   192
  0
VERTEX
  8
pPlane24
 10
-4.734393
 20
-4.884855
 30
5.132247
 70
   192
  0
VERTEX
  8
pPlane24
 10
-3.644453
 20
-4.611179
 30
6.153621
 70
   192
  0
VERTEX
  8
pPlane24
 62
   251
 10
0.0
 20
0.0
 30
0.0
 70
   128
 71
   4
 72
   2
 73
   1
  0
VERTEX
  8
pPlane24
 62
   251
 10
0.0
 20
0.0
 30
0.0
 70
   128
 71
   1
 72
   3
 73
   4
  0
SEQEND
  0
ENDSEC
  0
EOF
